<?xml version="1.0" encoding="UTF-8"?>
<svg width="84px" height="84px" viewBox="0 0 84 84" version="1.1" xmlns="http://www.w3.org/2000/svg" xmlns:xlink="http://www.w3.org/1999/xlink">
    <!-- Generator: Sketch 46.2 (44496) - http://www.bohemiancoding.com/sketch -->
    <title>Graphics/adult</title>
    <desc>Created with Sketch.</desc>
    <defs>
        <rect id="path-1" x="0" y="0" width="84" height="84"></rect>
    </defs>
    <g id="UI" stroke="none" stroke-width="1" fill="none" fill-rule="evenodd">
        <g id="Graphics" transform="translate(-50.000000, -175.000000)">
            <g id="Graphics/adult" transform="translate(50.000000, 175.000000)">
                <mask id="mask-2" fill="white">
                    <use xlink:href="#path-1"></use>
                </mask>
                <use id="Rectangle-6" fill="#FFD41D" fill-rule="evenodd" opacity="0" xlink:href="#path-1"></use>
                <g id="Group-2" stroke-width="1" fill-rule="evenodd" mask="url(#mask-2)">
                    <g transform="translate(4.000000, 2.000000)">
                        <g id="Group" stroke-width="1" fill="none" fill-rule="evenodd" transform="translate(28.671875, 73.200000)">
                            <path d="M17.5606094,13.4136 C17.3789375,13.4136 17.1960625,13.3716 17.0288281,13.2888 L9.89189062,9.7296 C9.539375,9.5544 9.29754687,9.216 9.2458125,8.8272 C9.192875,8.4384 9.33604687,8.0484 9.62840625,7.7856 L17.5557969,0.6672 C17.9179375,0.3432 18.4400937,0.2724 18.8744219,0.4836 C19.3111562,0.6972 19.5734375,1.1532 19.5373437,1.6368 L18.7468906,12.3156 C18.7180156,12.7104 18.4942344,13.0644 18.1489375,13.26 C17.9660625,13.3632 17.7639375,13.4136 17.5606094,13.4136 Z M12.5159062,8.3856 L16.5042656,10.374 L16.9458125,4.4064 L12.5159062,8.3856 Z" id="Shape" fill="#FFD41D" fill-rule="nonzero"></path>
                            <path d="M2.09564063,13.4136 C1.8923125,13.4136 1.6901875,13.362 1.5073125,13.2588 C1.16201563,13.0632 0.938234375,12.7092 0.909359375,12.3144 L0.11890625,1.6356 C0.0828125,1.152 0.34509375,0.696 0.781828125,0.4824 C1.21495313,0.27 1.73951563,0.3408 2.10045313,0.666 L10.0278438,7.7844 C10.3202031,8.0472 10.463375,8.4372 10.4104375,8.826 C10.3587031,9.2148 10.1156719,9.552 9.76435938,9.7284 L2.62742188,13.2876 C2.4601875,13.3728 2.2773125,13.4136 2.09564063,13.4136 Z M2.7104375,4.4064 L3.15198438,10.374 L7.14034375,8.3856 L2.7104375,4.4064 Z" id="Shape" fill="#FFD41D" fill-rule="nonzero"></path>
                            <g transform="translate(8.421875, 9.600000)" id="Oval" fill-rule="nonzero" fill="#8E44E5">
                                <ellipse cx="1.40625" cy="13.8996" rx="1.337875" ry="1.3344"></ellipse>
                                <ellipse cx="1.40625" cy="20.1288" rx="1.337875" ry="1.3344"></ellipse>
                                <ellipse cx="1.40625" cy="1.4412" rx="1.337875" ry="1.3344"></ellipse>
                                <ellipse cx="1.40625" cy="7.6704" rx="1.337875" ry="1.3344"></ellipse>
                            </g>
                        </g>
                        <g id="Group" stroke-width="1" fill="none" fill-rule="evenodd" transform="translate(3.609375, 7.200000)">
                            <path d="M38.1065781,61.2456 L31.7107656,61.2456 C24.899875,61.2456 18.0396563,57.7764 12.8890781,51.7284 C5.44895312,42.99 2.63003125,30.4188 4.94965625,16.3308 C5.05673437,15.6828 5.6643125,15.2448 6.31640625,15.3528 C6.96489063,15.4584 7.40403125,16.0692 7.29695312,16.716 C5.09282812,30.1056 7.72285937,41.994 14.7033906,50.1924 C19.4003906,55.71 25.5988906,58.8732 31.7107656,58.8732 L38.1065781,58.8732 C43.6975,58.8732 49.6613906,55.566 54.467875,49.8 C61.7395625,41.0772 64.7521875,28.7184 62.524,16.74 C62.4048906,16.0956 62.8307969,15.4764 63.476875,15.3564 C64.1265625,15.2364 64.7437656,15.6624 64.8640781,16.3068 C67.2197969,28.9716 64.0170781,42.0588 56.2978281,51.318 C51.0377656,57.6276 44.4073437,61.2456 38.1065781,61.2456 Z" id="Shape" fill="#FFD41D" fill-rule="nonzero"></path>
                            <path d="M67.8911406,17.7168 C51.8955938,17.7168 38.7911563,12.8832 34.890625,6.1344 C30.9900938,12.8832 17.8856563,17.7168 1.89010938,17.7168 C1.23560938,17.7168 0.70503125,17.1852 0.70503125,16.53 C0.70503125,15.8748 1.23560938,15.3432 1.89010938,15.3432 C19.1357031,15.3432 33.7055469,9.192 33.7055469,1.9128 C33.7055469,1.2576 34.236125,0.726 34.890625,0.726 C35.545125,0.726 36.0757031,1.2576 36.0757031,1.9128 C36.0757031,9.1932 50.6455469,15.3432 67.8911406,15.3432 C68.5456406,15.3432 69.0762188,15.8748 69.0762188,16.53 C69.0774219,17.1852 68.5468438,17.7168 67.8911406,17.7168 Z" id="Shape" fill="#FFD41D" fill-rule="nonzero"></path>
                        </g>
                        <g id="Group" stroke-width="1" fill="none" fill-rule="evenodd" transform="translate(20.250000, 24.000000)">
                            <g id="Shape" fill-rule="nonzero" fill="#FFD41D">
                                <path d="M9.19648437,1.8324 C9.19648437,2.664 8.52153125,3.3372 7.68776562,3.3372 L1.65289062,3.3372 C0.819125,3.3372 0.144171875,2.664 0.144171875,1.8324 L0.144171875,1.8324 C0.144171875,1.0008 0.819125,0.3276 1.65289062,0.3276 L7.68776562,0.3276 C8.52153125,0.3276 9.19648437,1.0008 9.19648437,1.8324 L9.19648437,1.8324 Z"></path>
                                <path d="M36.3558281,1.8324 C36.3558281,2.664 35.680875,3.3372 34.8471094,3.3372 L28.8122344,3.3372 C27.9784688,3.3372 27.3035156,2.664 27.3035156,1.8324 L27.3035156,1.8324 C27.3035156,1.0008 27.9784688,0.3276 28.8122344,0.3276 L34.8471094,0.3276 C35.680875,0.3276 36.3558281,1.0008 36.3558281,1.8324 L36.3558281,1.8324 Z"></path>
                            </g>
                            <g transform="translate(1.406250, 7.200000)" id="Shape" fill-rule="nonzero" fill="#FFD41D">
                                <g>
                                    <path d="M5.52715625,1.2372 L0.999796875,1.2372 C0.674953125,1.2372 0.412671875,0.9756 0.412671875,0.6516 C0.412671875,0.3276 0.674953125,0.066 0.999796875,0.066 L5.52715625,0.066 C5.852,0.066 6.11428125,0.3276 6.11428125,0.6516 C6.11428125,0.9756 5.852,1.2372 5.52715625,1.2372 Z"></path>
                                    <path d="M3.26407813,5.7516 C1.69279688,5.7516 0.413875,4.476 0.413875,2.9088 C0.413875,1.3416 1.69279688,0.066 3.26407813,0.066 C4.83535937,0.066 6.11428125,1.3416 6.11428125,2.9088 C6.11428125,4.4772 4.83535937,5.7516 3.26407813,5.7516 Z M3.26407813,1.2372 C2.34007813,1.2372 1.58692188,1.9872 1.58692188,2.91 C1.58692188,3.8328 2.338875,4.5816 3.26407813,4.5816 C4.18928125,4.5816 4.94123437,3.8316 4.94123437,2.91 C4.94123437,1.9884 4.18807813,1.2372 3.26407813,1.2372 Z"></path>
                                </g>
                                <g transform="translate(27.468750, 0.000000)">
                                    <path d="M5.21775,1.2372 L0.69159375,1.2372 C0.36675,1.2372 0.10446875,0.9756 0.10446875,0.6516 C0.10446875,0.3276 0.36675,0.066 0.69159375,0.066 L5.21775,0.066 C5.54259375,0.066 5.804875,0.3276 5.804875,0.6516 C5.804875,0.9756 5.54259375,1.2372 5.21775,1.2372 Z"></path>
                                    <path d="M2.95467188,5.7516 C1.38339063,5.7516 0.10446875,4.476 0.10446875,2.9088 C0.10446875,1.3416 1.38339063,0.066 2.95467188,0.066 C4.52595313,0.066 5.804875,1.3416 5.804875,2.9088 C5.804875,4.4772 4.52595313,5.7516 2.95467188,5.7516 Z M2.95467188,1.2372 C2.03067188,1.2372 1.27871875,1.9872 1.27871875,2.91 C1.27871875,3.8328 2.03067188,4.5816 2.95467188,4.5816 C3.87867188,4.5816 4.63182813,3.8316 4.63182813,2.91 C4.63182813,1.9884 3.87867188,1.2372 2.95467188,1.2372 Z"></path>
                                </g>
                            </g>
                            <path d="M18.3955781,20.4768 C18.2548125,20.4768 18.1128438,20.4264 18.0009531,20.3244 C16.6739063,19.1208 16.8435469,16.77 18.3799375,15.0864 C18.5989063,14.8476 18.9706719,14.832 19.2088906,15.0468 C19.4483125,15.264 19.4663594,15.6348 19.2485938,15.8736 C18.1477344,17.0808 17.9432031,18.6888 18.7902031,19.458 C19.029625,19.6752 19.0476719,20.046 18.8299063,20.2848 C18.7132031,20.412 18.5543906,20.4768 18.3955781,20.4768 Z" id="Shape" fill="#FFD41D" fill-rule="nonzero"></path>
                            <g transform="translate(2.609375, 8.400000)" id="Oval" fill-rule="nonzero" fill="#FFD41D">
                                <ellipse cx="2.04771875" cy="1.71" rx="1.17304688" ry="1.17"></ellipse>
                                <ellipse cx="29.2070625" cy="1.71" rx="1.17304688" ry="1.17"></ellipse>
                            </g>
                            <path d="M18.25,28.2096 C16.0386562,28.2096 14.2399844,26.4156 14.2399844,24.21 C14.2399844,23.886 14.5022656,23.6244 14.8271094,23.6244 C15.1519531,23.6244 15.4142344,23.886 15.4142344,24.21 C15.4142344,25.77 16.6859375,27.0384 18.25,27.0384 C19.8140625,27.0384 21.0857656,25.77 21.0857656,24.21 C21.0857656,23.886 21.3480469,23.6244 21.6728906,23.6244 C21.9977344,23.6244 22.2600156,23.886 22.2600156,24.21 C22.2600156,26.4156 20.4613437,28.2096 18.25,28.2096 Z" id="Shape" fill="#FFD41D" fill-rule="nonzero"></path>
                            <path d="M22.3731094,21.6192 C20.6357969,21.078 19.0175937,21.114 18.25,21.6252 C17.4824062,21.114 15.8642031,21.078 14.1268906,21.6192 C11.91675,22.308 10.3731406,23.658 10.6787344,24.636 C10.9843281,25.6128 13.0248281,25.8468 15.2349687,25.158 C16.57525,24.7404 17.662875,24.078 18.25,23.4048 C18.8359219,24.078 19.9235469,24.7404 21.2650312,25.158 C23.4751719,25.8468 25.5156719,25.6128 25.8212656,24.636 C26.1268594,23.6592 24.58325,22.308 22.3731094,21.6192 Z" id="Shape" fill="#FFD41D" fill-rule="nonzero"></path>
                        </g>
                        <g id="Group" stroke-width="1" fill="none" fill-rule="evenodd" transform="translate(0.000000, 32.400000)">
                            <path d="M68.7405469,11.3892 C68.1522188,11.3892 67.6445,10.9488 67.5759219,10.3524 C67.5025313,9.7104 67.9645312,9.1296 68.6082031,9.0552 C71.6184219,8.7108 73.9765469,7.2744 73.9765469,5.7864 C73.9765469,3.6564 72.0683906,2.4348 68.7429531,2.4348 C68.0944688,2.4348 67.5699063,1.9104 67.5699063,1.2648 C67.5699063,0.6192 68.0956719,0.0948 68.7429531,0.0948 C74.3326719,0.0948 76.3238438,3.036 76.3238438,5.7876 C76.3238438,8.5788 73.2618906,10.8792 68.8765,11.382 C68.8307813,11.3868 68.7862656,11.3892 68.7405469,11.3892 Z" id="Shape" fill="#FFD41D" fill-rule="nonzero"></path>
                            <path d="M8.25945312,11.3892 C8.21373437,11.3892 8.16921875,11.3868 8.1235,11.382 C3.73810937,10.8792 0.67615625,8.5788 0.67615625,5.7876 C0.67615625,3.036 2.66732812,0.0948 8.25704687,0.0948 C8.90553125,0.0948 9.43009375,0.6192 9.43009375,1.2648 C9.43009375,1.9104 8.90432812,2.4348 8.25704687,2.4348 C4.93160938,2.4348 3.02345312,3.6564 3.02345312,5.7864 C3.02345312,7.2744 5.38157812,8.7108 8.39179687,9.0552 C9.03546875,9.1284 9.49746875,9.7092 9.42407812,10.3524 C9.35429687,10.95 8.84657813,11.3892 8.25945312,11.3892 Z" id="Shape" fill="#FFD41D" fill-rule="nonzero"></path>
                        </g>
                        <g id="Group" stroke-width="1" fill="none" fill-rule="evenodd" transform="translate(14.437500, 66.000000)">
                            <path d="M46.8304375,41.9748 C46.1759375,41.9748 45.6453594,41.4456 45.6453594,40.7928 L45.6453594,18.0756 C45.6453594,13.824 40.761875,11.0724 30.2766406,9.4152 C29.7003438,9.3348 29.2539844,8.8416 29.2539844,8.2452 L29.250375,1.5444 C29.250375,0.8916 29.77975,0.3624 30.43425,0.3624 L30.43425,0.3624 C31.08875,0.3624 31.618125,0.8916 31.6193281,1.5432 L31.6217344,7.2408 C38.94275,8.4792 48.0143125,11.0028 48.0143125,18.0768 L48.0143125,40.794 C48.0155156,41.4456 47.4849375,41.9748 46.8304375,41.9748 Z" id="Shape" fill="#FFD41D" fill-rule="nonzero"></path>
                            <path d="M1.2945625,42 C0.6400625,42 0.109484375,41.4708 0.109484375,40.818 L0.109484375,18.1008 C0.109484375,11.4576 7.73729687,8.952 15.4926406,7.4604 L15.4878281,1.4232 C15.4878281,0.7704 16.0172031,0.2412 16.6717031,0.24 L16.6729063,0.24 C17.3274063,0.24 17.8567813,0.768 17.8579844,1.4208 L17.8627969,8.4192 C17.8627969,8.8632 17.6149531,9.2688 17.219125,9.4716 C17.1156563,9.5244 16.9424063,9.594 16.8293125,9.6144 C6.90473438,11.4276 2.47964063,14.046 2.47964063,18.1008 L2.47964063,40.818 C2.47964063,41.4708 1.9490625,42 1.2945625,42 Z" id="Shape" fill="#FFD41D" fill-rule="nonzero"></path>
                        </g>
                        <path d="M3.57689063,34.5384 C3.56125,34.5384 3.54560938,34.5384 3.52996875,34.5372 C2.86464063,34.512 2.34609375,33.954 2.3725625,33.2892 C2.7671875,23.0412 6.8915,14.418 14.2991406,8.352 C20.876625,2.9664 29.577625,0 38.7995781,0 C55.4375938,0 73.74675,10.3932 74.6274375,33.2148 C74.6539063,33.8784 74.1353594,34.4364 73.4700313,34.4628 C72.8047031,34.5228 72.24525,33.972 72.2187813,33.3084 C71.3994531,12.0744 54.3210938,2.4036 38.7995781,2.4048 C22.9893125,2.4048 5.60054688,12.0996 4.7788125,33.3828 C4.75475,34.0296 4.2205625,34.5384 3.57689063,34.5384 Z" id="Shape" fill="#FFD41D" fill-rule="nonzero"></path>
                    </g>
                </g>
            </g>
        </g>
    </g>
</svg>