<?xml version="1.0" encoding="UTF-8"?>
<svg width="84px" height="84px" viewBox="0 0 84 84" version="1.1" xmlns="http://www.w3.org/2000/svg" xmlns:xlink="http://www.w3.org/1999/xlink">
    <!-- Generator: Sketch 46.2 (44496) - http://www.bohemiancoding.com/sketch -->
    <title>Graphics/chessguru</title>
    <desc>Created with Sketch.</desc>
    <defs>
        <rect id="path-1" x="0" y="0" width="84" height="84"></rect>
    </defs>
    <g id="UI" stroke="none" stroke-width="1" fill="none" fill-rule="evenodd">
        <g id="Graphics" transform="translate(-154.000000, -175.000000)">
            <g id="Graphics/chessguru" transform="translate(154.000000, 175.000000)">
                <mask id="mask-2" fill="white">
                    <use xlink:href="#path-1"></use>
                </mask>
                <use id="Rectangle-6" fill="#FFD41D" fill-rule="evenodd" opacity="0" xlink:href="#path-1"></use>
                <g id="Group-2" stroke-width="1" fill-rule="evenodd" mask="url(#mask-2)">
                    <g transform="translate(1.000000, 3.000000)">
                        <g id="Group-5" stroke="none" stroke-width="1" fill="none" fill-rule="evenodd">
                            <g id="Group" transform="translate(19.294118, 73.200000)" fill-rule="nonzero" fill="#FFD41D">
                                <path d="M24.0513235,19.044 C23.6726765,19.044 23.3145294,18.8688 23.0817941,18.5688 L10.9361471,2.8548 C10.5249412,2.322 10.6250294,1.5576 11.1592353,1.1484 C11.6946471,0.7392 12.4627941,0.8376 12.874,1.3704 L23.9994706,15.7632 L33.9781471,1.4208 C34.3616176,0.8676 35.1249412,0.7296 35.6796471,1.1124 C36.2355588,1.4952 36.3730294,2.2524 35.9895588,2.8056 L25.0582353,18.5196 C24.8363529,18.84 24.4745882,19.0332 24.0838824,19.044 C24.0718235,19.0428 24.0621765,19.044 24.0513235,19.044 Z" id="Shape"></path>
                                <rect id="Rectangle-path" x="0.411205882" y="23.8704" width="46.0671176" height="8.3052"></rect>
                            </g>
                            <g id="Group" transform="translate(18.088235, 66.000000)" fill-rule="nonzero" fill="#FFD41D">
                                <path d="M47.4707647,41.9748 C46.8147647,41.9748 46.2829706,41.4456 46.2829706,40.7928 L46.2829706,18.0756 C46.2829706,13.824 41.3882941,11.0724 30.8790294,9.4152 C30.3014118,9.3348 29.8540294,8.8416 29.8540294,8.2452 L29.8504118,1.5444 C29.8504118,0.8916 30.381,0.3624 31.037,0.3624 L31.037,0.3624 C31.693,0.3624 32.2235882,0.8916 32.2247941,1.5432 L32.2272059,7.2408 C39.565,8.4792 48.6573529,11.0028 48.6573529,18.0768 L48.6573529,40.794 C48.6585588,41.4456 48.1267647,41.9748 47.4707647,41.9748 Z" id="Shape"></path>
                                <path d="M1.83052941,42 C1.17452941,42 0.642735294,41.4708 0.642735294,40.818 L0.642735294,18.1008 C0.642735294,11.4576 8.28802941,8.952 16.0611471,7.4604 L16.0563235,1.4232 C16.0563235,0.7704 16.5869118,0.2412 17.2429118,0.24 L17.2441176,0.24 C17.9001176,0.24 18.4307059,0.768 18.4319118,1.4208 L18.4367353,8.4192 C18.4367353,8.8632 18.1883235,9.2688 17.7915882,9.4716 C17.6878824,9.5244 17.5142353,9.594 17.4008824,9.6144 C7.45355882,11.4276 3.01832353,14.046 3.01832353,18.1008 L3.01832353,40.818 C3.01832353,41.4708 2.48652941,42 1.83052941,42 Z" id="Shape"></path>
                            </g>
                            <path d="M46.0405882,67.6836 L39.0826471,67.6836 C23.0649118,67.6836 10.0329412,57.3408 10.0329412,44.628 L11.0724118,29.3004 C11.1182353,28.6344 11.6982647,28.128 12.3663235,28.176 C13.0355882,28.2204 13.5420588,28.7976 13.4962353,29.4636 L12.4603824,44.7096 C12.4627941,56.0076 24.4046471,65.2656 39.0838529,65.2656 L46.043,65.2656 C60.721,65.2656 72.6640588,56.0076 72.6640588,44.628 C72.6640588,42.3648 72.7569118,39.7872 72.8461471,37.2948 C72.9329706,34.8588 73.0161765,32.5596 73.0161765,30.5904 C73.0161765,29.9232 73.5600294,29.382 74.2305,29.382 C74.9009706,29.382 75.4448235,29.9232 75.4448235,30.5904 C75.4448235,32.6016 75.3616176,34.9236 75.2723824,37.3812 C75.1831471,39.8532 75.0915,42.408 75.0915,44.628 C75.0915,57.3408 62.0595294,67.6836 46.0405882,67.6836 Z" id="Shape" fill="#FFD41D" fill-rule="nonzero"></path>
                            <g id="Group" transform="translate(25.323529, 24.000000)" fill-rule="nonzero" fill="#FFD41D">
                                <path d="M35.5626765,1.8324 C35.5626765,2.664 34.8861765,3.3372 34.0505,3.3372 L28.0017941,3.3372 C27.1661176,3.3372 26.4896176,2.664 26.4896176,1.8324 L26.4896176,1.8324 C26.4896176,1.0008 27.1661176,0.3276 28.0017941,0.3276 L34.0505,0.3276 C34.8861765,0.3276 35.5626765,1.0008 35.5626765,1.8324 L35.5626765,1.8324 Z" id="Shape"></path>
                                <g transform="translate(0.000000, 7.200000)">
                                    <g id="Shape">
                                        <path d="M6.07282353,1.2372 L1.53508824,1.2372 C1.2095,1.2372 0.946617647,0.9756 0.946617647,0.6516 C0.946617647,0.3276 1.2095,0.066 1.53508824,0.066 L6.07282353,0.066 C6.39841176,0.066 6.66129412,0.3276 6.66129412,0.6516 C6.66129412,0.9756 6.39841176,1.2372 6.07282353,1.2372 Z"></path>
                                        <path d="M3.80455882,5.7516 C2.22967647,5.7516 0.947823529,4.476 0.947823529,2.9088 C0.947823529,1.3416 2.22967647,0.066 3.80455882,0.066 C5.37944118,0.066 6.66129412,1.3416 6.66129412,2.9088 C6.66129412,4.4772 5.37944118,5.7516 3.80455882,5.7516 Z M3.80455882,1.2372 C2.87844118,1.2372 2.12355882,1.9872 2.12355882,2.91 C2.12355882,3.8328 2.87723529,4.5816 3.80455882,4.5816 C4.73188235,4.5816 5.48555882,3.8316 5.48555882,2.91 C5.48555882,1.9884 4.73067647,1.2372 3.80455882,1.2372 Z"></path>
                                    </g>
                                    <g transform="translate(27.735294, 0.000000)" id="Shape">
                                        <path d="M5.55911765,1.2372 L1.02258824,1.2372 C0.697,1.2372 0.434117647,0.9756 0.434117647,0.6516 C0.434117647,0.3276 0.697,0.066 1.02258824,0.066 L5.55911765,0.066 C5.88470588,0.066 6.14758824,0.3276 6.14758824,0.6516 C6.14758824,0.9756 5.8835,1.2372 5.55911765,1.2372 Z"></path>
                                        <path d="M3.29085294,5.7516 C1.71597059,5.7516 0.434117647,4.476 0.434117647,2.9088 C0.434117647,1.3416 1.71597059,0.066 3.29085294,0.066 C4.86573529,0.066 6.14758824,1.3416 6.14758824,2.9088 C6.14758824,4.4772 4.86573529,5.7516 3.29085294,5.7516 Z M3.29085294,1.2372 C2.36473529,1.2372 1.61105882,1.9872 1.61105882,2.91 C1.61105882,3.8328 2.36473529,4.5816 3.29085294,4.5816 C4.21697059,4.5816 4.97185294,3.8316 4.97185294,2.91 C4.97185294,1.9884 4.21697059,1.2372 3.29085294,1.2372 Z"></path>
                                    </g>
                                    <g transform="translate(2.411765, 1.200000)" id="Oval">
                                        <ellipse cx="1.37952941" cy="1.71" rx="1.17573529" ry="1.17"></ellipse>
                                        <ellipse cx="28.5999118" cy="1.71" rx="1.17573529" ry="1.17"></ellipse>
                                    </g>
                                </g>
                                <path d="M17.5612647,20.4768 C17.4201765,20.4768 17.2778824,20.4264 17.1657353,20.3244 C15.8356471,19.1208 16.0056765,16.77 17.5455882,15.0864 C17.7650588,14.8476 18.1376765,14.832 18.3764412,15.0468 C18.6164118,15.264 18.6345,15.6348 18.4162353,15.8736 C17.3128529,17.0808 17.1078529,18.6888 17.9567941,19.458 C18.1967647,19.6752 18.2148529,20.046 17.9965882,20.2848 C17.8796176,20.412 17.7204412,20.4768 17.5612647,20.4768 Z" id="Shape"></path>
                                <path d="M17.4153529,28.2096 C15.2001471,28.2096 13.3961471,26.4156 13.3961471,24.21 C13.3961471,23.886 13.6590294,23.6244 13.9846176,23.6244 C14.3102059,23.6244 14.5730882,23.886 14.5730882,24.21 C14.5730882,25.77 15.8477059,27.0384 17.4153529,27.0384 C18.983,27.0384 20.2576176,25.77 20.2576176,24.21 C20.2576176,23.886 20.5205,23.6244 20.8460882,23.6244 C21.1716765,23.6244 21.4345588,23.886 21.4345588,24.21 C21.4333529,26.4156 19.6305588,28.2096 17.4153529,28.2096 Z" id="Shape"></path>
                            </g>
                            <g id="Group" transform="translate(3.617647, 32.400000)" fill-rule="nonzero" fill="#FFD41D">
                                <path d="M70.6237059,11.3892 C70.0340294,11.3892 69.5251471,10.9488 69.4564118,10.3524 C69.3828529,9.7104 69.8459118,9.1296 70.4910588,9.0552 C73.5081765,8.7108 75.8717059,7.2744 75.8717059,5.7864 C75.8717059,3.6564 73.9591765,2.4348 70.6261176,2.4348 C69.9761471,2.4348 69.4503824,1.9104 69.4503824,1.2648 C69.4503824,0.6192 69.9773529,0.0948 70.6261176,0.0948 C76.2286471,0.0948 78.2243824,3.036 78.2243824,5.7876 C78.2243824,8.5788 75.1554118,10.8792 70.7599706,11.382 C70.7141471,11.3868 70.6683235,11.3892 70.6237059,11.3892 Z" id="Shape"></path>
                                <path d="M7.61876471,11.3892 C7.57294118,11.3892 7.52832353,11.3868 7.4825,11.382 C3.08705882,10.8792 0.0180882353,8.5788 0.0180882353,5.7876 C0.0180882353,3.036 2.01382353,0.0948 7.61635294,0.0948 C8.26632353,0.0948 8.79208824,0.6192 8.79208824,1.2648 C8.79208824,1.9104 8.26511765,2.4348 7.61635294,2.4348 C4.28329412,2.4348 2.37076471,3.6564 2.37076471,5.7864 C2.37076471,7.2744 4.73429412,8.7108 7.75141176,9.0552 C8.39655882,9.1284 8.85961765,9.7092 8.78605882,10.3524 C8.71611765,10.95 8.20723529,11.3892 7.61876471,11.3892 Z" id="Shape"></path>
                            </g>
                            <path d="M74.5657353,31.08 C74.5645294,31.08 74.5633235,31.08 74.5621176,31.08 L72.4482059,31.0728 C71.9417353,31.0716 71.4907353,30.7572 71.3134706,30.2856 C68.2215882,22.0104 59.1485294,17.5332 45.0397059,17.304 C43.8663824,28.9164 25.7359412,30.03 12.3795882,30.8508 C12.3783824,30.8508 12.3759706,30.8508 12.3747647,30.8508 C11.3497647,30.8508 10.5659412,30.114 5.88470588,24.8376 C4.12291176,22.8516 1.73044118,20.154 1.02017647,19.6596 C0.675294118,19.5552 0.387088235,19.3008 0.247205882,18.9564 C0.0615,18.5004 0.172441176,17.9772 0.526970588,17.6352 C1.05032353,17.13 13.5203529,5.2284 29.8805588,0.6204 C31.3420882,0.2088 33.1099118,0 35.1333824,0 C45.5112059,0 60.7788824,5.3904 66.8601471,7.7076 C73.0282353,10.056 75.7788529,13.8144 75.7788529,29.8716 C75.7788529,30.1932 75.6498235,30.5016 75.4219118,30.7284 C75.1952059,30.954 74.8865,31.08 74.5657353,31.08 Z M73.2778529,28.6584 L73.3453824,28.6584 C73.2055,13.806 70.4524706,11.664 65.9931176,9.966 C60.0372647,7.6956 45.1060294,2.418 35.1345882,2.418 C33.3342059,2.418 31.7894706,2.5968 30.5437941,2.9472 C17.4177647,6.6444 6.59014706,15.4968 3.27035294,18.4188 C4.15908824,19.2708 5.49038235,20.7384 7.708,23.238 C9.42758824,25.176 11.7404706,27.7836 12.5556471,28.4208 C28.4274706,27.4344 42.6737647,25.7136 42.6737647,16.086 C42.6737647,15.4188 43.2176176,14.8776 43.8880882,14.8776 C59.3173529,14.8776 69.454,19.638 73.2778529,28.6584 Z" id="Shape" fill="#FFD41D" fill-rule="nonzero"></path>
                        </g>
                        <rect id="Rectangle-4" stroke="none" fill="#FFD41D" fill-rule="evenodd" x="12" y="33" width="6" height="3"></rect>
                        <rect id="Rectangle" stroke="#FFD41D" stroke-width="2" fill="none" x="18" y="29" width="20" height="12" rx="3"></rect>
                        <rect id="Rectangle" stroke="#FFD41D" stroke-width="2" fill="none" x="46" y="29" width="20" height="12" rx="3"></rect>
                        <rect id="Rectangle-4" stroke="none" fill="#FFD41D" fill-rule="evenodd" x="65" y="33" width="9" height="3"></rect>
                        <rect id="Rectangle-4" stroke="none" fill="#FFD41D" fill-rule="evenodd" x="39" y="33" width="6" height="3"></rect>
                    </g>
                </g>
            </g>
        </g>
    </g>
</svg>