<?xml version="1.0" encoding="UTF-8"?>
<svg width="90px" height="154px" viewBox="0 0 90 154" version="1.1" xmlns="http://www.w3.org/2000/svg" xmlns:xlink="http://www.w3.org/1999/xlink">
    <!-- Generator: Sketch 46.2 (44496) - http://www.bohemiancoding.com/sketch -->
    <title>Graphics/figureC</title>
    <desc>Created with Sketch.</desc>
    <defs></defs>
    <g id="UI" stroke="none" stroke-width="1" fill="none" fill-rule="evenodd">
        <g id="Graphics" transform="translate(-310.000000, -299.000000)" fill="#5CC4FF">
            <g id="Graphics/figureC" transform="translate(310.000000, 299.000000)">
                <path d="M73,136 L73,132 C75.7797561,130.606741 77.6065876,127.889502 77,125 C77.3532712,121.927937 75.3025074,119.375139 72,119 C71.6504068,116.050287 69.6878471,109.544908 68,105 C66.8453461,101.265335 64.4744214,84.6059528 63,75 C65.908947,74.0193182 67.6877575,71.4709522 68,69 L68,68 C70.4060377,67.1750677 72.2134638,64.608268 72,62 C72.2134638,58.8554894 70.4060377,56.2886896 68,55 L68,55 C67.689446,51.7266315 65.7219479,49.0730939 63,48 C62.9677417,46.4606181 63.1945595,44.7402342 64,43 C64.1762088,41.0915517 65.0278095,39.2173823 66,37 C66.612568,36.401999 67.1333086,35.4297005 68,35 C67.6540492,34.2769755 67.8175958,33.9562172 68,34 C69.2373413,31.0994639 71.3203035,26.9195827 70,22 C69.9944385,20.9905723 69.2311431,20.3828658 68,20 L64,20 C61.7091514,15.6202665 57.2851241,12.0827903 52,11 C53.1731344,8.00584899 52.6588771,5.05968451 51,3 C48.8351771,1.08828091 45.9083335,0.460420047 43,1 C40.7897261,2.51353707 39.1101297,4.98908027 39,8 C39.0927392,8.69972702 39.26296,9.64862754 40,11 C34.4001569,12.1276401 30.0094355,15.661191 27,20 L23,20 C21.6926134,20.4126854 20.8903669,21.1236577 21,22 C20.2931192,26.4579529 21.2571028,30.8859573 24,35 L24,35 C25.1409506,37.6248899 26.9469872,40.9327096 27,43 C27.8006037,44.7402051 28.0274228,46.4605997 28,48 C25.2749853,49.0701659 23.3068978,51.7193382 23,55 L23,56 C20.9892848,56.7917389 19.5320464,59.1487943 20,62 C19.5320464,64.3049393 20.9892848,66.6619947 23,68 L23,69 C23.3049294,71.4610199 25.0838436,74.0095344 28,75 C26.5185552,84.5959291 24.1486338,101.255312 23,105 C21.3091429,109.544908 19.3445764,116.040263 19,119 C15.6940201,119.377524 13.6456504,121.930714 14,125 C13.3947022,127.890628 15.2212062,130.606654 18,132 L18,136 C12.8217936,137.273248 9.014788,141.782238 9,147 L9,152 C9.00166101,153.161666 9.843169,154.000554 11,154 L80,154 C81.156831,154.000554 81.998339,153.161666 82,152 L82,147 C81.9783223,141.786774 78.1734099,137.284486 73,136 L73,136 Z M22,132 L26,132 L26,136 L22,136 L22,132 Z M27,132 L69,132 L69,136 L27,136 L27,132 Z M61,72 L58,72 C57.324047,72.1515355 56.4863584,72.9945234 56,74 C56.4863584,75.0742801 57.324047,75.917268 58,76 L60,76 C60.6046256,81.8981373 63.2931056,102.146501 65,107 C66.2067096,110.704984 67.8125937,115.981037 69,119 L64,119 C63.2032837,119.021816 62.365595,119.864804 62,121 C62.365595,121.94456 63.2032837,122.787548 64,123 L71,123 C72.6180377,122.787548 74,124.178253 74,126 C74,127.609295 72.6180377,129 71,129 L24,129 C23.4946366,128.203468 23,127.07594 23,126 C23,124.711609 23.4946366,123.58408 24,123 L34,123 C35.4285381,122.787548 36.2662267,121.94456 36,121 C36.2662267,119.864804 35.4285381,119.021816 34,119 L28,119 C29.1302983,116.031381 30.808222,110.493539 32,107 C33.7288298,101.914919 36.3742862,82.0491693 37,76 L45,76 C46.1614468,75.917268 46.9991354,75.0742801 47,74 C46.9991354,72.9945234 46.1614468,72.1515355 45,72 L34,72 C33.2462052,71.353463 32.751526,70.2240734 33,69 L33,69 L64,69 L64,69 C64.2540458,69.8749585 63.9267968,70.6651186 63,71 C62.765133,71.8284655 61.9783595,72.153942 61,72 L61,72 Z M66,65 L30,65 C29.5266164,64.23955 29.0135704,63.1561649 29,62 C28.9869602,60.8734191 29.4746227,59.7792979 30,59 L66,59 C66.9870318,58.998959 68.0199675,59.5697926 69,60 C69.1390717,61.4251564 69.1402309,62.5687498 69,63 C68.0248903,64.4261981 66.9931138,64.9989578 66,65 L66,65 Z M65,32 C64.6645541,32.2599349 64.4880742,32.6335505 64,33 C63.9947325,33.7241042 63.5003881,34.6530945 63,36 C61.787301,37.7079094 60.8259119,39.8886877 60,42 C59.7316327,44.0662046 59.4717565,45.9986181 59,48 L52,48 C51.3014393,47.9416938 50.4619287,48.7871027 50,50 C50.4619287,50.8728321 51.3014393,51.718241 52,52 L61,52 C62.7786102,51.7182321 64.1686953,53.113568 64,55 L64,55 L33,55 L33,55 C32.8720559,53.6369461 33.3539594,52.5178917 34,52 L39,52 C40.2188441,51.718241 41.0583547,50.8728321 41,50 C41.0583547,48.7871027 40.2188441,47.9416938 39,48 L38,48 C37.5742186,46.0802655 37.3260803,44.2289153 37,42 C36.3645895,39.934202 34.52258,36.5514658 33,34 L33,33 C32.0568553,32.0718915 31.4617891,30.7259528 31,29 L35,29 C35.7117263,29.3326824 36.4492231,28.7715477 37,28 L38,24 L41,24 L42,28 C42.0838512,28.772161 42.8218972,29.3337136 44,29 L48,29 C48.8258468,29.3340584 49.5640767,28.7723659 50,28 L51,24 L54,24 L55,28 C55.2082469,28.7723659 55.9464768,29.3340584 57,29 L61,29 C61.9529785,29.3323398 62.6902929,28.7713438 63,28 L64,24 L67,24 C67.1914262,27.1605863 65.869832,29.8364821 65,32 L65,32 Z M61,21 C60.9606117,21.003287 60.9242534,21.0814623 61,21 L60,25 L58,25 L57,21 C56.9221506,20.3935554 56.1806143,19.8514593 55,20 L55,20 L50,20 C48.6713611,19.8576798 47.9294608,20.3960541 48,21 L47,25 L45,25 L44,21 C43.7156807,20.4035228 42.9743253,19.8615589 42,20 L42,20 L36,20 C35.4613719,19.8681096 34.7198354,20.4062199 34,21 L33,25 L33,25 C33.858462,18.1596599 39.4637137,14.7590337 44,13 C44.3889138,13.0580052 45.2546094,12.9992255 46,13 C52.159311,12.981178 57.7817356,15.9722334 61,21 L61,21 Z M49,8 C48.9918239,8.74226293 48.6787391,9.45468373 48,10 C47.2873309,9.91600255 46.4526965,9.87243058 46,10 L46,10 C44.8541307,8.31395696 44.8185301,6.58721163 45,5 C45.5013129,5.01004445 45.5587238,5.0000043 46,5 C47.4801962,4.99722582 48.9937928,6.34046408 49,8 L49,8 Z M43,7 C43.0046853,6.30267147 43.3013979,5.51704151 44,5 C43.60813,6.30783395 43.6738825,7.66014736 44,9 C43.8083982,8.94431555 43.6189655,8.97215777 43,9 C43.124467,8.45968735 42.9740427,7.80077484 43,7 L43,7 Z M36,16 C33.7253385,18.0926152 32.2083172,20.9118928 32,24 L31,22 C32.2289834,19.2949838 33.9405784,17.4120267 36,16 L36,16 Z M27,34 L27,33 C24.8725255,30.1693673 23.9996102,27.1140442 24,24 L27,24 L28,28 C28.343787,28.2818913 28.539643,28.5872714 29,29 C29.3316472,30.6593258 30.0898819,32.4231724 31,34 L31,35 C32.7644553,37.0844595 34.6988958,40.5101351 35,43 C35.6266221,44.5114202 35.8673835,46.251046 36,48 L32,48 C31.6486039,46.0496817 31.3778394,44.1100949 31,42 C30.3229285,39.5878378 28.3707505,36.1216216 27,34 L27,34 Z M30,52 L32,52 C31.404132,52.841816 31.0877365,53.8226953 31,55 L31,55 L27,55 L27,55 C27.0008047,54.0947749 27.3317485,53.3685873 28,53 C28.508192,52.2986593 29.3054657,51.9987788 30,52 L30,52 Z M26,59 L28,59 C26.7383795,60.8299301 26.7537947,63.1851388 28,65 L26,65 C24.3902946,64.9997315 22.9997219,63.656368 23,62 C23.0002781,60.3426595 24.3913015,58.9997315 26,59 L26,59 Z M27,69 L31,69 L31,69 C31.0230458,70.0898315 31.3621362,71.1188761 32,72 L30,72 C29.4279041,72.0022791 28.5879615,71.6912918 28,71 C27.3486816,70.5800161 27.0002793,69.8254016 27,69 L27,69 L27,69 L27,69 Z M27,106 C28.5786308,101.165616 31.3453106,80.966363 32,75 L36,75 C35.1583696,81.2777388 32.4760586,100.683485 31,105 C29.4799367,109.22121 27.6371983,115.147395 27,118 L23,118 C23.9301148,114.966597 25.5783934,109.70334 27,106 L27,106 Z M20,122 L22,122 C20.6946732,123.823665 20.6946732,126.176335 22,128 L20,128 C18.4782763,128.001072 17.0011793,126.658795 17,125 C16.9988221,123.345087 18.4740083,122.001072 20,122 L20,122 Z M13,147 C13.0096455,143.181671 16.1018249,140.130744 20,140 C17.9878846,141.782952 16.8437858,144.285326 17,147 L17,150 L13,150 L13,147 L13,147 Z M78,150 L18,150 L18,147 C18.0039411,144.058401 19.5712413,141.425262 22,140 L71,140 C74.8022018,140.000527 77.989727,143.091565 78,147 L78,150 L78,150 L78,150 Z" id="figureC"></path>
            </g>
        </g>
    </g>
</svg>