<?xml version="1.0" encoding="UTF-8"?>
<svg width="90px" height="155px" viewBox="0 0 90 155" version="1.1" xmlns="http://www.w3.org/2000/svg" xmlns:xlink="http://www.w3.org/1999/xlink">
    <!-- Generator: Sketch 46.2 (44496) - http://www.bohemiancoding.com/sketch -->
    <title>Graphics/figureD</title>
    <desc>Created with Sketch.</desc>
    <defs></defs>
    <g id="UI" stroke="none" stroke-width="1" fill="none" fill-rule="evenodd">
        <g id="Graphics" transform="translate(-440.000000, -298.000000)" fill="#5CC4FF">
            <g id="Graphics/figureD" transform="translate(440.000000, 299.000000)">
                <path d="M71,137 L71,132 C74.0379707,131.1458 75.7806595,128.512714 76,126 C75.5435484,122.751829 73.590336,120.269999 71,119 C70.0789111,116.964626 68.1992492,110.599954 67,106 C65.4450922,102.45117 63.9674971,85.4519835 63,77 C65.9980192,76.5050856 67.7341318,74.0022723 68,71 L68,71 C70.334947,69.7618003 72.0597569,67.2701122 72,64 C72.0597569,61.7072057 70.334947,59.2155175 68,58 L68,58 C67.7399081,54.7547322 65.8558112,52.1699388 63,51 C63.1939998,49.5982573 63.4121459,47.9216326 64,46 C64.251589,44.6898855 64.9815438,43.1936866 66,42 C66.5066074,40.8117151 67.0635435,39.7813002 68,39 C67.6866141,38.4536431 67.8574925,38.1329038 68,38 C69.4054493,35.0658336 72.2500713,29.4629178 68,25 C64.8218888,22.0658661 58.7205265,20.151453 50,20 C49.6632353,18.4741176 49.5271223,17.2152566 50,16 C50.0731299,16.0100331 50.5295067,16.083649 51,16 C52.5890092,16.4930196 54.408361,16.8538514 56,16 C56.7906063,14.4382831 56.9614846,12.3635003 57,11 C56.9614846,10.0982785 56.7906063,8.02349572 56,7 C54.4184127,5.61795047 52.6292158,6.00885157 51,6 C50.7897606,6.40977578 50.4379523,6.48996062 50,7 C50.1665572,6.29952162 50.2268672,6.03892089 50,6 C50.5786756,4.35503921 50.9405356,2.66113443 50,1 C47.814467,-0.496143708 41.974448,-0.496143708 40,1 C38.8483793,2.66113443 39.2102394,4.35503921 40,6 C39.5620477,6.03892089 39.6123061,6.29952162 40,7 C39.3409111,6.48996062 38.9991543,6.40977578 39,6 C37.1596991,6.00885157 35.3705023,5.61795047 34,7 C32.9983087,8.02349572 32.8173787,10.0982785 33,11 C32.8173787,12.3635003 32.9983087,14.4382831 34,16 C35.380554,16.8538514 37.2099575,16.5030427 39,16 C39.220291,16.1221647 39.8233911,16.0119106 40,16 C40.2829626,17.2599184 40.1195775,18.5497085 40,20 C33.0988254,20.2516841 25.9621413,21.7050343 22,25 C17.1769836,29.6333106 20.614654,35.5770119 22,38 C22.2329725,38.3935045 22.3736959,38.634059 22,39 C22.8360726,39.4960461 23.248191,40.1876403 24,41 C24.764019,42.5815727 25.6389754,44.377042 26,46 C26.5835667,47.9223099 26.8016813,49.5986934 27,51 C24.1471434,52.1680062 22.2635221,54.7480903 22,58 L22,59 C20.0551314,59.7074769 18.6650742,61.9973451 19,64 C18.6650742,66.9899958 20.0551314,69.2798641 22,70 L22,71 C22.2659627,74.005277 24.0071307,76.509595 27,77 C26.0325029,85.4519835 24.5549078,102.45117 23,106 C21.8007508,110.599954 19.9210889,116.964626 19,119 C16.409664,120.269999 14.4564516,122.751829 14,126 C14.2193405,128.512714 15.9620293,131.1458 19,132 L19,137 C13.626575,137.732248 9.97878612,142.125007 10,147 L10,152 C9.99741961,152.656948 10.1865417,153.119453 11,153 C10.8651641,153.803665 11.3268686,153.997349 12,154 L78,154 C78.6731314,153.997349 79.1348359,153.803665 79,153 C79.8134583,153.119453 80.0025804,152.656948 80,152 L80,147 C80.0212139,142.125007 76.373425,137.732248 71,137 Z M22,133 L26,133 L26,137 L22,137 L22,133 Z M27,133 L67,133 L67,137 L27,137 L27,133 Z M61,74 L58,74 C57.3569804,74.0701145 56.5394665,74.8903301 57,76 C56.5394665,76.9139045 57.3569804,77.7341201 58,78 L60,78 C60.1412391,83.6227005 61.6662236,102.778202 63,108 C64.4653727,111.122874 66.00039,116.296772 67,119 L55,119 C53.7022734,119.266227 52.8825136,120.088696 53,121 C52.8825136,122.11783 53.7022734,122.940299 55,123 L69,123 C70.6479579,122.940299 72,124.296809 72,126 C72,127.64349 70.6479579,129 69,129 L24,129 C23.4718448,128.213494 23,127.117247 23,126 C23,124.823052 23.4718448,123.726805 24,123 L30,123 C31.0239877,122.940299 31.8437475,122.11783 32,121 C31.8437475,120.088696 31.0239877,119.266227 30,119 L28,119 C28.8790572,116.347102 30.4943369,110.921555 32,107 C33.293486,102.556751 34.7984049,83.6931621 35,78 L43,78 C43.8029951,77.7341201 44.6205089,76.9139045 45,76 C44.6205089,74.8903301 43.8029951,74.0701145 43,74 L32,74 C31.3905399,73.2836265 30.9144981,72.1825596 31,71 L31,71 L64,71 L64,71 C64.0395604,72.7002442 62.7086626,74.0535241 61,74 L61,74 Z M66,67 L29,67 C28.4965124,66.2295138 28.0116519,65.1487285 28,64 C27.9887626,62.8770978 28.4517487,61.786968 29,61 L66,61 C67.050637,61 68.0518864,61.5717968 69,63 C69.1354448,63.4282032 69.1354448,64.5717968 69,66 C68.0518864,66.4282032 67.050637,67 66,67 L66,67 Z M65,36 C64.9482515,36.4492457 64.7575211,36.8346239 65,37 C64.2455605,37.9704754 63.7034847,38.9136379 63,40 C62.0176454,41.6169901 61.1560374,43.4739633 61,45 C60.1963481,47.296589 59.9482427,49.1900377 60,51 L53,51 C52.1011343,51.0936171 51.2809129,51.9222617 51,53 C51.2809129,53.9666315 52.1011343,54.7952761 53,55 L61,55 C62.2698417,54.801435 63.0296903,55.1266458 64,56 C64.1444148,56.2718411 64.4535478,57.0448323 64,58 L64,58 L32,58 L32,58 C31.5782197,56.6762659 32.0389821,55.584004 33,55 L38,55 C38.6354071,54.7952761 39.4556285,53.9666315 39,53 C39.4556285,51.9222617 38.6354071,51.0936171 38,51 L36,51 C36.0844781,49.2688245 35.8498049,47.4534447 36,46 C34.6206846,42.8567314 33.4322869,40.1630295 32,38 L32,37 C31.5302787,36.7940578 31.3094329,36.4391042 31,36 C29.6631285,33.6704661 27.2137487,29.5631459 28,26 C32.2831618,23.9853036 38.28615,23.0218581 46,23 C55.7931925,22.9407259 62.8000249,24.6445031 66,28 C67.9798609,29.8673918 66.6748635,32.9909835 65,36 Z M42,13 C40.5903656,12.4445897 39.1482195,12.7259082 38,13 C37.2398159,13.0906177 36.7281529,13.1677498 36,13 C35.9431909,12.1820659 35.9293481,11.0960364 36,10 C36.6411891,10.1170565 37.1056881,10.2042424 38,10 C39.1482195,10.656208 40.9433384,11.0480445 42,10 C43.3233836,8.63674333 42.9704108,6.93878544 43,5 C42.5770983,5.12026249 42.4762489,4.62795517 42,4 C43.7875427,3.90454861 45.2191,3.90454861 47,4 C46.5203088,4.62795517 46.4194595,5.1102154 46,5 C46.0362318,6.93878544 45.6731741,8.63674333 47,10 C48.0532193,11.0480445 49.8483382,10.656208 51,10 C51.8840854,10.204282 52.3418678,10.1170933 53,10 C53.0655917,11.0887358 53.0655917,12.1728153 53,13 C52.2941396,13.1667721 51.7886312,13.0895517 51,13 C49.8584232,12.6957669 48.3658524,12.4044014 47,13 C45.1588423,14.3937248 45.4714753,17.7996877 46,20 C45.693344,19.9799058 45.4815603,19.9698587 45,20 L45,20 C44.3520473,19.9698587 43.7267811,19.9799058 43,20 C43.6158468,17.5786518 43.8578853,14.2932539 42,13 L42,13 Z M25,37 C25.3733856,37.0223048 25.2168937,36.7546468 25,36 C22.9868845,32.8389095 22.1261792,30.2317224 24,28 C24.7466373,27.8402066 25.3897351,27.3812785 26,27 C25.5983426,30.9752169 27.9261592,34.9008674 29,37 C29.412832,37.4089219 29.6084468,37.7360595 30,38 L30,39 C31.4017395,40.9001119 32.5136176,43.4166182 33,46 C33.657521,47.6747645 33.8763238,49.3330539 34,51 L30,51 C30.0928213,49.1365513 29.8511312,47.2827646 30,45 C28.8125315,43.236508 27.8320853,41.1289999 27,39 C26.1851872,38.5092937 25.8037382,37.8550186 25,37 Z M29,55 L31,55 C30.4044355,55.8470602 30.0885911,56.8279124 30,58 L30,58 L26,58 L26,58 C25.9883123,56.2935365 27.3904876,55.0156577 29,55 L29,55 Z M25,61 L27,61 C25.7516976,62.8369005 25.7679259,65.1786366 27,67 L25,67 C23.4008554,67 22,65.6568542 22,64 C22,62.3431458 23.4008554,61 25,61 L25,61 Z M26,71 L30,71 L30,71 C30.0286087,72.0935329 30.3652804,73.1167514 31,74 L29,74 C27.4649768,73.9838306 25.9876862,72.6641911 26,71 L26,71 Z M27,107 C28.3057621,102.723219 29.8698885,83.8131362 30,78 L34,78 C33.5297398,83.93238 32.0065056,102.276054 31,107 C29.1644981,110.503878 27.4061338,116.237518 27,119 L23,119 C23.8894052,116.068589 25.4535316,110.960979 27,107 L27,107 Z M21,123 L23,123 C22.3639506,123.894464 22.0273702,124.936333 22,126 C22.0288434,127.062065 22.3611952,128.10267 23,129 L21,129 C19.4841658,128.999999 18,127.656854 18,126 C18,124.343146 19.4841658,123.000001 21,123 L21,123 Z M14,147 C13.9781776,143.218065 17.0668591,140.170727 21,140 C18.9795924,141.798701 17.8357086,144.29524 18,147 L18,150 L14,150 L14,147 L14,147 L14,147 Z M77,150 L19,150 L19,147 C18.9937328,144.075712 20.5030525,141.449185 23,140 L70,140 C73.9434454,140.035637 77.025074,143.125855 77,147 L77,150 L77,150 L77,150 Z" id="figureD"></path>
            </g>
        </g>
    </g>
</svg>