<?xml version="1.0" encoding="UTF-8"?>
<svg width="110px" height="89px" viewBox="0 0 110 89" version="1.1" xmlns="http://www.w3.org/2000/svg" xmlns:xlink="http://www.w3.org/1999/xlink">
    <!-- Generator: Sketch 46.2 (44496) - http://www.bohemiancoding.com/sketch -->
    <title>Graphics/intelekt</title>
    <desc>Created with Sketch.</desc>
    <defs></defs>
    <g id="UI" stroke="none" stroke-width="1" fill="none" fill-rule="evenodd">
        <g id="Graphics" transform="translate(-578.000000, -170.000000)">
            <g id="Graphics/intelekt" transform="translate(578.000000, 170.000000)">
                <g id="Group" transform="translate(24.000000, 5.000000)">
                    <path d="M34.5,0.647540984 C15.7528302,0.647540984 0.650943396,15.9295082 0.650943396,34.5786885 C0.650943396,35.0967213 0.650943396,55.4295082 0.650943396,55.4295082 C0.650943396,56.7245902 1.69245283,57.7606557 3.1245283,57.7606557 L8.33207547,57.7606557 C9.63396226,57.7606557 10.6754717,58.9262295 10.6754717,60.2213115 L10.6754717,75.7622951 C10.6754717,77.057377 11.7169811,78.352459 13.1490566,78.352459 L26.0377358,78.352459 C49.4716981,78.2229508 68.3490566,62.1639344 68.3490566,34.4491803 C68.3490566,15.8 53.2471698,0.647540984 34.5,0.647540984 Z M49.3415094,42.3491803 C44.7849057,46.8819672 38.7962264,49.0836066 32.9377358,49.0836066 C26.9490566,49.0836066 21.090566,46.8819672 16.5339623,42.3491803 L18.6169811,40.2770492 C26.5584906,48.1770492 39.4471698,48.1770492 47.3886792,40.2770492 C53.6377358,34.0606557 53.6377358,23.9590164 47.3886792,17.742623 C45.045283,15.4114754 41.9207547,14.1163934 38.5358491,14.1163934 C35.1509434,14.1163934 32.0264151,15.4114754 29.6830189,17.742623 C25.9075472,21.4983607 25.9075472,27.5852459 29.6830189,31.4704918 C32.5471698,34.3196721 37.3641509,34.3196721 40.2283019,31.4704918 C41.2698113,30.4344262 41.9207547,29.0098361 41.9207547,27.4557377 C41.9207547,25.9016393 41.2698113,24.4770492 40.2283019,23.4409836 C39.3169811,22.5344262 37.8849057,22.1459016 36.5830189,22.2754098 C37.8849057,22.2754098 39.0566038,23.052459 39.7075472,24.0885246 C41.009434,25.7721311 40.8792453,28.2327869 39.3169811,29.7868852 C37.3641509,31.7295082 33.9792453,31.7295082 32.0264151,29.7868852 C30.854717,28.6213115 30.2037736,27.1967213 30.2037736,25.5131148 C30.2037736,23.9590164 30.854717,22.404918 32.0264151,21.2393443 C33.3283019,19.9442623 35.1509434,19.1672131 37.1037736,19.1672131 C39.0566038,19.1672131 40.8792453,19.9442623 42.1811321,21.2393443 C43.7433962,22.7934426 44.654717,24.995082 44.654717,27.3262295 C44.654717,29.657377 43.7433962,31.7295082 42.1811321,33.4131148 C38.145283,37.4278689 31.5056604,37.4278689 27.4698113,33.4131148 C22.5226415,28.4918033 22.5226415,20.5918033 27.4698113,15.6704918 C30.3339623,12.8213115 34.2396226,11.1377049 38.4056604,11.1377049 C42.5716981,11.1377049 46.3471698,12.6918033 49.3415094,15.6704918 C56.6320755,23.052459 56.6320755,34.9672131 49.3415094,42.3491803 Z" id="Shape" fill="#01A3FF" fill-rule="nonzero"></path>
                    <path d="M33.0622642,22.404918 C33.1924528,22.404918 33.3226415,22.404918 33.3226415,22.404918 C33.3226415,22.404918 33.3226415,22.404918 33.3226415,22.404918 C33.1924528,22.404918 33.0622642,22.404918 33.0622642,22.404918 Z" id="Shape" fill="#FFFFFF" fill-rule="nonzero"></path>
                </g>
            </g>
        </g>
    </g>
</svg>