<?xml version="1.0" encoding="UTF-8"?>
<svg width="105px" height="35px" viewBox="0 0 105 35" version="1.1" xmlns="http://www.w3.org/2000/svg" xmlns:xlink="http://www.w3.org/1999/xlink">
    <!-- Generator: Sketch 46.2 (44496) - http://www.bohemiancoding.com/sketch -->
    <title>Graphics/logoB</title>
    <desc>Created with Sketch.</desc>
    <defs></defs>
    <g id="UI" stroke="none" stroke-width="1" fill="none" fill-rule="evenodd">
        <g id="Graphics" transform="translate(-51.000000, -80.000000)" fill="#424242">
            <g id="Graphics/logoB" transform="translate(50.000000, 80.000000)">
                <path d="M21.21875,5.44335938 L24.5585938,5.44335938 L24.5585938,30 L21.5351562,30 L5.1171875,11.1035156 L5.1171875,30 L1.8125,30 L1.8125,5.44335938 L4.66015625,5.44335938 L21.21875,24.4980469 L21.21875,5.44335938 Z M51.3613281,5.44335938 L54.6308594,5.44335938 L54.6308594,30 L51.0976562,30 L51.0976562,10.8925781 L43.5390625,20.3847656 L42.8886719,20.3847656 L35.2597656,10.8925781 L35.2597656,30 L31.7441406,30 L31.7441406,5.44335938 L35.0488281,5.44335938 L43.2226562,15.5332031 L51.3613281,5.44335938 Z M81.7859375,24.3046875 L81.7859375,28.171875 C79.2077996,29.578132 76.2312669,30.28125 72.85625,30.28125 C70.1140488,30.28125 67.7879002,29.7304743 65.8777344,28.6289062 C63.9675686,27.5273382 62.4558649,26.0097753 61.3425781,24.0761719 C60.2292913,22.1425685 59.6726562,20.0507925 59.6726562,17.8007812 C59.6726562,14.2265446 60.9470576,11.2207153 63.4958984,8.78320312 C66.0447393,6.34569094 69.1882626,5.12695312 72.9265625,5.12695312 C75.5047004,5.12695312 78.3699061,5.80077451 81.5222656,7.1484375 L81.5222656,10.9277344 C78.6511575,9.28710117 75.844545,8.46679688 73.1023437,8.46679688 C70.2898297,8.46679688 67.9548921,9.35448331 66.0974609,11.1298828 C64.2400298,12.9052823 63.3113281,15.1288929 63.3113281,17.8007812 C63.3113281,20.4961072 64.2253815,22.7109288 66.0535156,24.4453125 C67.8816498,26.1796962 70.219517,27.046875 73.0671875,27.046875 C76.0437649,27.046875 78.9499858,26.1328216 81.7859375,24.3046875 Z M94.1921875,19.6992188 L91.5203125,18.0820312 C89.8445229,17.0624949 88.652152,16.0576221 87.9431641,15.0673828 C87.2341761,14.0771435 86.8796875,12.9375064 86.8796875,11.6484375 C86.8796875,9.71483408 87.5505792,8.14453729 88.8923828,6.9375 C90.2341864,5.73046271 91.977333,5.12695312 94.121875,5.12695312 C96.1726665,5.12695312 98.0535071,5.70116613 99.7644531,6.84960938 L99.7644531,10.8398438 C97.994913,9.1406165 96.0906352,8.29101562 94.0515625,8.29101562 C92.9031193,8.29101562 91.9597693,8.55761452 91.2214844,9.09082031 C90.4831994,9.6240261 90.1140625,10.3066365 90.1140625,11.1386719 C90.1140625,11.8769568 90.3835911,12.5683562 90.9226563,13.2128906 C91.4617214,13.8574251 92.3347596,14.5312465 93.5417969,15.234375 L96.23125,16.8164062 C99.231265,18.5976652 100.73125,20.8710799 100.73125,23.6367188 C100.73125,25.6054786 100.072077,27.205072 98.7537109,28.4355469 C97.435345,29.6660218 95.7214949,30.28125 93.6121094,30.28125 C91.186316,30.28125 88.9773537,29.5371168 86.9851563,28.0488281 L86.9851563,23.5839844 C88.8836032,25.9863401 91.0808469,27.1875 93.5769531,27.1875 C94.6785211,27.1875 95.5955042,26.8798859 96.3279297,26.2646484 C97.0603552,25.649411 97.4265625,24.8789109 97.4265625,23.953125 C97.4265625,22.4531175 96.3484483,21.0351629 94.1921875,19.6992188 Z" id="NMCS"></path>
            </g>
        </g>
    </g>
</svg>