<?xml version="1.0" encoding="UTF-8"?>
<svg width="110px" height="89px" viewBox="0 0 110 89" version="1.1" xmlns="http://www.w3.org/2000/svg" xmlns:xlink="http://www.w3.org/1999/xlink">
    <!-- Generator: Sketch 46.2 (44496) - http://www.bohemiancoding.com/sketch -->
    <title>Graphics/skype</title>
    <desc>Created with Sketch.</desc>
    <defs></defs>
    <g id="UI" stroke="none" stroke-width="1" fill="none" fill-rule="evenodd">
        <g id="Graphics" transform="translate(-200.000000, -493.000000)" fill="#01A3FF">
            <g id="Graphics/skype" transform="translate(200.000000, 493.000000)">
                <path d="M102.999653,65.8180942 L102.999653,68.6995746 C102.53443,71.2244374 100.335728,73.0413734 97.796508,72.9992836 L12.2033822,72.9992836 C9.66456282,73.0402079 7.46650924,71.2238083 7.00023726,68.6995746 L7.00023726,65.8265361 C6.98837433,64.6961721 7.42179372,63.6075009 8.20483238,62.8008109 C8.98787105,61.9941209 10.0561504,61.5357351 11.173883,61.5268271 L12.99081,61.5268271 L12.99081,20.299709 C12.9789471,19.169345 13.4123665,18.0806738 14.1954052,17.2739838 C14.9784438,16.4672938 16.0467232,16.008908 17.1644557,16 L92.6100577,16 C93.7277902,16.008908 94.7960696,16.4672938 95.5791082,17.2739838 C96.3621469,18.0806738 96.7955663,19.169345 96.7837033,20.299709 L96.7837033,61.5099434 L98.8649613,61.5099434 C101.180873,61.550035 103.029099,63.4757977 102.999653,65.8180942 Z M90.7736536,21.3830781 L17.9268417,21.3830781 L17.9268417,61.5183853 L90.7736536,61.5183853 L90.7736536,21.3830781 Z" id="skype"></path>
            </g>
        </g>
    </g>
</svg>