<?xml version="1.0" encoding="UTF-8"?>
<svg width="82px" height="36px" viewBox="0 0 82 36" version="1.1" xmlns="http://www.w3.org/2000/svg" xmlns:xlink="http://www.w3.org/1999/xlink">
    <!-- Generator: Sketch 46.2 (44496) - http://www.bohemiancoding.com/sketch -->
    <title>Graphics/socialH</title>
    <desc>Created with Sketch.</desc>
    <defs></defs>
    <g id="UI" stroke="none" stroke-width="1" fill="none" fill-rule="evenodd">
        <g id="Graphics" transform="translate(-350.000000, -549.000000)" fill="#01A3FF">
            <g id="Graphics/socialH" transform="translate(350.000000, 549.000000)">
                <g id="Social">
                    <path d="M4,0 L32,0 C34.209139,-4.05812251e-16 36,1.790861 36,4 L36,32 C36,34.209139 34.209139,36 32,36 L4,36 C1.790861,36 2.705415e-16,34.209139 0,32 L0,4 L0,4 C-2.705415e-16,1.790861 1.790861,4.05812251e-16 4,0 L4,0 Z M29.8621098,24.6435366 C29.8306268,24.5795022 29.8012774,24.5263863 29.7740143,24.483831 C29.3229158,23.7170736 28.4608787,22.7759332 27.1884244,21.6601413 L27.1615406,21.6345902 L27.1480749,21.6220607 L27.1344671,21.6092181 L27.1208118,21.6092181 C26.5433071,21.0896488 26.1776016,20.740301 26.0244538,20.5614431 C25.744236,20.2207317 25.6814597,19.8758587 25.8346074,19.5264214 C25.9428066,19.2624081 26.3492409,18.7048477 27.0529621,17.8529796 C27.4231246,17.4015168 27.7162864,17.0396843 27.9327796,16.7670794 C29.4941758,14.808011 30.171108,13.5561404 29.9634339,13.0109752 L29.8827824,12.8835776 C29.828588,12.8068795 29.6887162,12.7367146 29.4633566,12.6727249 C29.2374755,12.6088695 28.9487705,12.598309 28.5967203,12.6408643 L24.6981371,12.6662812 C24.6349814,12.6451601 24.5447996,12.6471291 24.4273073,12.6727249 C24.3099572,12.6983208 24.2512584,12.7111635 24.2512584,12.7111635 L24.1834088,12.7431583 L24.1295463,12.7815969 C24.084408,12.8070137 24.0347653,12.851717 23.9805709,12.9156172 C23.926661,12.9792936 23.8815701,13.0540228 23.8455353,13.1391783 C23.4210836,14.16977 22.9385021,15.1279594 22.39689,16.0137017 C22.062952,16.5418626 21.7562771,16.9995901 21.4762015,17.3871527 C21.1965053,17.7745811 20.9618526,18.0600287 20.7724803,18.2430034 C20.5828236,18.426157 20.4116585,18.5728858 20.2579417,18.6837267 C20.104462,18.7946122 19.9873016,18.8414634 19.9061759,18.8243249 C19.8248606,18.8071864 19.7482867,18.7901822 19.6757904,18.7731779 C19.5495265,18.6964798 19.4479653,18.5921722 19.3713914,18.4601655 C19.2944856,18.3281589 19.2427094,18.1620095 19.2156359,17.9618516 C19.1887046,17.7615594 19.1727734,17.5892795 19.1682217,17.4444302 C19.1640018,17.2997598 19.1659458,17.0951271 19.1750967,16.8311138 C19.1844847,16.5669662 19.1887046,16.3882426 19.1887046,16.2945403 C19.1887046,15.9708331 19.19539,15.6195164 19.2088082,15.2405006 C19.2224635,14.8614849 19.233511,14.5611809 19.2427568,14.3399467 C19.2519551,14.1184887 19.2562224,13.8841881 19.2562224,13.637179 C19.2562224,13.3901699 19.2402912,13.1964558 19.2088082,13.0558575 C19.1777045,12.9154382 19.1299584,12.7791357 19.0670398,12.6469948 C19.0037419,12.5149881 18.9110946,12.4128732 18.7895247,12.3403814 C18.6677176,12.2679791 18.5162768,12.2105226 18.3360555,12.167833 C17.8576939,12.0656733 17.2485639,12.0104095 16.5083812,12.0018178 C14.829872,11.9848136 13.7513417,12.0871076 13.2730275,12.3085655 C13.083513,12.4021336 12.912016,12.5299787 12.7586785,12.6916981 C12.5961901,12.8791475 12.5735262,12.9814415 12.6908288,12.9982668 C13.2323936,13.0748306 13.6157846,13.2579843 13.8414286,13.5475487 L13.922744,13.7009897 C13.9859945,13.8116963 14.0491502,14.0076926 14.1123533,14.2887102 C14.1754615,14.5697278 14.2161903,14.8805923 14.2341129,15.2211247 C14.2791563,15.842988 14.2791563,16.3753105 14.2341129,16.8181369 C14.1889271,17.2611423 14.1462544,17.6060153 14.1055256,17.8530244 C14.0647968,18.1000335 14.003917,18.3001914 13.922744,18.4534533 C13.8414286,18.6067601 13.7873291,18.7004624 13.7602082,18.7344709 C13.7331347,18.7684794 13.7105655,18.7899137 13.692643,18.7983263 C13.5753403,18.8407475 13.4533436,18.8623608 13.3270797,18.8623608 C13.2006261,18.8623608 13.0472886,18.8026669 12.8668303,18.6833687 C12.6864193,18.5640704 12.4991807,18.4002032 12.3051145,18.1914984 C12.1110483,17.9827489 11.8921845,17.6910365 11.6484282,17.3163166 C11.4048615,16.9415967 11.152144,16.4987255 10.8904177,15.9877031 L10.6738772,15.6171 C10.5385097,15.3786825 10.3535944,15.0315274 10.1189417,14.5759478 C9.88414668,14.1201892 9.67661483,13.6793317 9.49620389,13.2534647 C9.42408693,13.0746069 9.31574553,12.9384387 9.17136937,12.8447363 L9.10361451,12.8062978 C9.05857104,12.7722893 8.98626442,12.7361776 8.88707397,12.6976943 C8.78774127,12.6592558 8.68409388,12.631691 8.57570507,12.6147315 L4.86654148,12.6401484 C4.48751256,12.6401484 4.23033807,12.721187 4.09492318,12.8830406 L4.04072878,12.9596045 C4.01365528,13.0022493 4,13.0703558 4,13.1641029 C4,13.2578053 4.02707349,13.3728077 4.0812679,13.5089759 C4.62273779,14.7100128 5.21157444,15.8683154 5.84777786,16.9840626 C6.48398128,18.0998097 7.03683057,18.9985737 7.50599384,19.6795491 C7.97525194,20.3610167 8.45356615,21.0041801 8.94093647,21.6087258 C9.42830679,22.2134953 9.75091284,22.601058 9.90875463,22.7713242 C10.0667861,22.9419036 10.1909164,23.0694355 10.2811456,23.154591 L10.6196354,23.4611597 C10.8362233,23.6656134 11.1542776,23.9104746 11.5739405,24.1957432 C11.9936982,24.4811908 12.4584045,24.7622084 12.9682966,25.0392434 C13.4782835,25.3158309 14.0715771,25.5415399 14.7485093,25.716102 C15.4253466,25.890843 16.0841192,25.9609632 16.7249218,25.9271336 L18.2817188,25.9271336 C18.5974498,25.9014035 18.8366544,25.8077012 18.9992376,25.6459818 L19.0531001,25.5819474 C19.0893245,25.5311137 19.1232256,25.4521334 19.154519,25.3458568 C19.1861917,25.2394013 19.2019332,25.1221167 19.2019332,24.9945401 C19.1926874,24.6283671 19.2222264,24.2983504 19.2897442,24.0045349 C19.3572146,23.7108089 19.4341204,23.4893509 19.5201297,23.3402058 C19.6060916,23.1911949 19.703101,23.0654529 19.8110631,22.9635169 C19.9192622,22.8613572 19.9963577,22.7994707 20.0415908,22.7781706 C20.0865394,22.7567363 20.122432,22.7421932 20.1495055,22.7334673 C20.3660934,22.6653609 20.620992,22.7313194 20.9145806,22.9316563 C21.2079321,23.1318142 21.4830766,23.3789576 21.7404407,23.6726836 C21.9976626,23.9666781 22.3067082,24.2965157 22.667625,24.6626888 C23.0287787,25.0289961 23.3445572,25.3012878 23.6151973,25.4804141 L23.8858374,25.6337209 C24.0665802,25.7360148 24.301233,25.8297172 24.5900801,25.9148727 C24.8784058,25.9999834 25.1310285,26.0212835 25.3479483,25.9787281 L28.8133082,25.9277154 C29.1560653,25.9277154 29.4227701,25.874152 29.6119526,25.7678754 C29.8015145,25.6614199 29.9141232,25.5441353 29.9504424,25.4165587 C29.9866668,25.2888479 29.9886108,25.1439538 29.9573175,24.9819659 C29.9252181,24.8203808 29.8935928,24.7073921 29.8621098,24.6435366 Z" id="vk"></path>
                    <path d="M80.014,0 L47.986,0 C46.89,0 46,0.89 46,1.986 L46,34.012 C46,35.11 46.89,36 47.986,36 L65.228,36 L65.228,22.058 L60.536,22.058 L60.536,16.624 L65.228,16.624 L65.228,12.62 C65.228,7.97 68.068,5.438 72.216,5.438 C74.202,5.438 75.91,5.586 76.408,5.652 L76.408,10.512 L73.532,10.514 C71.276,10.514 70.84,11.586 70.84,13.16 L70.84,16.628 L76.22,16.628 L75.52,22.062 L70.84,22.062 L70.84,36 L80.014,36 C81.11,36 82,35.11 82,34.014 L82,1.986 C82,0.89 81.11,0 80.014,0 Z" id="fb" fill-rule="nonzero"></path>
                </g>
            </g>
        </g>
    </g>
</svg>