<?xml version="1.0" encoding="UTF-8"?>
<svg width="84px" height="84px" viewBox="0 0 84 84" version="1.1" xmlns="http://www.w3.org/2000/svg" xmlns:xlink="http://www.w3.org/1999/xlink">
    <!-- Generator: Sketch 46.2 (44496) - http://www.bohemiancoding.com/sketch -->
    <title>Graphics/childrens</title>
    <desc>Created with Sketch.</desc>
    <defs>
        <rect id="path-1" x="0" y="0" width="84" height="84"></rect>
    </defs>
    <g id="UI" stroke="none" stroke-width="1" fill="none" fill-rule="evenodd">
        <g id="Graphics" transform="translate(-258.000000, -175.000000)">
            <g id="Graphics/childrens" transform="translate(258.000000, 175.000000)">
                <mask id="mask-2" fill="white">
                    <use xlink:href="#path-1"></use>
                </mask>
                <use id="Rectangle" fill="#FFFFFF" fill-rule="evenodd" opacity="0" xlink:href="#path-1"></use>
                <g id="Group-2" stroke-width="1" fill-rule="evenodd" mask="url(#mask-2)">
                    <g transform="translate(3.000000, 1.000000)">
                        <g id="Group" stroke-width="1" fill="none" fill-rule="evenodd" transform="translate(28.727273, 74.263736)">
                            <path d="M10.2460606,6.91610989 C7.82339394,6.91610989 5.43065152,5.79616484 1.65540909,3.72037363 C0.815136364,3.25802198 0.507515152,2.20156044 0.968348485,1.35950549 C1.42918182,0.517450549 2.48610606,0.210813187 3.32757576,0.671967033 C9.80677273,4.23303297 10.5824091,4.45462637 16.7264545,0.711494505 C17.5463788,0.210813187 18.6140758,0.471934066 19.1132121,1.29242857 C19.6123485,2.11292308 19.3526061,3.18136264 18.5326818,3.68084615 C14.9166364,5.886 12.5669848,6.91610989 10.2460606,6.91610989 Z" id="Shape" fill="#FFD41D" fill-rule="nonzero"></path>
                            <path d="M10.0605303,33.5384615 C9.42134848,33.5384615 8.90306061,33.0198132 8.90306061,32.3801868 L8.90306061,5.33141758 C8.90306061,4.69179121 9.42134848,4.17314286 10.0605303,4.17314286 C10.6997121,4.17314286 11.218,4.69179121 11.218,5.33141758 L11.218,32.378989 C11.219197,33.0198132 10.7009091,33.5384615 10.0605303,33.5384615 Z" id="Shape" fill="#FFD41D" fill-rule="nonzero"></path>
                        </g>
                        <g id="Group" stroke-width="1" fill="none" fill-rule="evenodd" transform="translate(20.348485, 27.153846)">
                            <g transform="translate(0.000000, 0.000000)" id="Shape" fill-rule="nonzero" fill="#FFD41D">
                                <path d="M9.6260303,2.39440659 C9.6260303,3.20651648 8.96889394,3.86410989 8.15734848,3.86410989 L2.28142424,3.86410989 C1.46987879,3.86410989 0.812742424,3.20651648 0.812742424,2.39440659 L0.812742424,2.39440659 C0.812742424,1.5822967 1.46987879,0.924703297 2.28142424,0.924703297 L8.15734848,0.924703297 C8.96889394,0.924703297 9.6260303,1.5822967 9.6260303,2.39440659 L9.6260303,2.39440659 Z"></path>
                                <path d="M36.0658939,2.39440659 C36.0658939,3.20651648 35.4087576,3.86410989 34.5972121,3.86410989 L28.7212879,3.86410989 C27.9097424,3.86410989 27.2526061,3.20651648 27.2526061,2.39440659 L27.2526061,2.39440659 C27.2526061,1.5822967 27.9097424,0.924703297 28.7212879,0.924703297 L34.5972121,0.924703297 C35.4087576,0.924703297 36.0658939,1.5822967 36.0658939,2.39440659 L36.0658939,2.39440659 Z"></path>
                            </g>
                            <g transform="translate(2.393939, 5.186813)" fill-rule="nonzero" fill="#FFD41D">
                                <g id="Shape">
                                    <path d="M5.02966667,1.65895604 L0.622424242,1.65895604 C0.306424242,1.65895604 0.051469697,1.40382418 0.051469697,1.0876044 C0.051469697,0.771384615 0.306424242,0.516252747 0.622424242,0.516252747 L5.02966667,0.516252747 C5.34566667,0.516252747 5.60062121,0.771384615 5.60062121,1.0876044 C5.60062121,1.40262637 5.34566667,1.65895604 5.02966667,1.65895604 Z"></path>
                                    <path d="M2.82604545,6.06806593 C1.29631818,6.06806593 0.051469697,4.82235165 0.051469697,3.29156044 C0.051469697,1.76076923 1.29631818,0.515054945 2.82604545,0.515054945 C4.35577273,0.515054945 5.60062121,1.76076923 5.60062121,3.29156044 C5.60062121,4.82235165 4.35577273,6.06806593 2.82604545,6.06806593 Z M2.82604545,1.65895604 C1.92592424,1.65895604 1.19337879,2.39201099 1.19337879,3.29275824 C1.19337879,4.19350549 1.92592424,4.92536264 2.82604545,4.92536264 C3.72616667,4.92536264 4.45871212,4.19350549 4.45871212,3.29275824 C4.45871212,2.39201099 3.72616667,1.65895604 2.82604545,1.65895604 Z"></path>
                                </g>
                                <g transform="translate(26.333333, 0.000000)" id="Shape">
                                    <path d="M5.135,1.65895604 L0.728954545,1.65895604 C0.412954545,1.65895604 0.158,1.40382418 0.158,1.0876044 C0.158,0.771384615 0.412954545,0.516252747 0.728954545,0.516252747 L5.135,0.516252747 C5.451,0.516252747 5.70595455,0.771384615 5.70595455,1.0876044 C5.70715152,1.40262637 5.451,1.65895604 5.135,1.65895604 Z"></path>
                                    <path d="M2.93257576,6.06806593 C1.40284848,6.06806593 0.158,4.82235165 0.158,3.29156044 C0.158,1.76076923 1.40284848,0.515054945 2.93257576,0.515054945 C4.46230303,0.515054945 5.70715152,1.76076923 5.70715152,3.29156044 C5.70715152,4.82235165 4.46230303,6.06806593 2.93257576,6.06806593 Z M2.93257576,1.65895604 C2.03245455,1.65895604 1.30110606,2.39201099 1.30110606,3.29275824 C1.30110606,4.19350549 2.03245455,4.92536264 2.93257576,4.92536264 C3.83269697,4.92536264 4.56524242,4.19350549 4.56524242,3.29275824 C4.56524242,2.39201099 3.8315,1.65895604 2.93257576,1.65895604 Z"></path>
                                </g>
                                <g transform="translate(1.196970, 1.197802)" id="Oval">
                                    <ellipse cx="1.62907576" cy="2.09375824" rx="1.14190909" ry="1.1427033"></ellipse>
                                    <ellipse cx="28.0677424" cy="2.09375824" rx="1.14190909" ry="1.1427033"></ellipse>
                                </g>
                            </g>
                            <path d="M18.5817576,18.6045934 C18.4441061,18.6045934 18.3064545,18.5554835 18.1975303,18.4560659 C16.906,17.281022 17.0711818,14.9848352 18.566197,13.3402527 C18.7792576,13.1078791 19.1407424,13.0911099 19.3729545,13.3019231 C19.6063636,13.5151319 19.6231212,13.8756703 19.4112576,14.1092418 C18.3399697,15.2878791 18.1400758,16.8581978 18.9659848,17.6104176 C19.1993939,17.8236264 19.2161515,18.1853626 19.0042879,18.4177363 C18.8905758,18.5411099 18.7361667,18.6045934 18.5817576,18.6045934 Z" id="Shape" fill="#FFD41D" fill-rule="nonzero"></path>
                            <path d="M18.4393182,26.1579341 C16.2871667,26.1579341 14.536,24.4055495 14.536,22.2519011 C14.536,21.9356813 14.7909545,21.6805495 15.1069545,21.6805495 C15.4229545,21.6805495 15.6779091,21.9356813 15.6779091,22.2519011 C15.6779091,23.7755055 16.9167727,25.014033 18.4381212,25.014033 C19.9594697,25.014033 21.1983333,23.7743077 21.1983333,22.2519011 C21.1983333,21.9356813 21.4532879,21.6805495 21.7692879,21.6805495 C22.0852879,21.6805495 22.3402424,21.9356813 22.3402424,22.2519011 C22.3426364,24.4055495 20.5914697,26.1579341 18.4393182,26.1579341 Z" id="Shape" fill="#FFD41D" fill-rule="nonzero"></path>
                        </g>
                        <g id="Group" stroke-width="1" fill="none" fill-rule="evenodd" transform="translate(0.000000, 33.538462)">
                            <path d="M69.3859394,11.5492088 C68.8137879,11.5492088 68.3194394,11.1191978 68.2524091,10.5370659 C68.1805909,9.90941758 68.6306515,9.34285714 69.2566667,9.27098901 C72.1868485,8.93440659 74.4826364,7.53178022 74.4826364,6.07884615 C74.4826364,3.99826374 72.6261364,2.80525275 69.3883333,2.80525275 C68.7575303,2.80525275 68.2464242,2.29379121 68.2464242,1.66254945 C68.2464242,1.03130769 68.7575303,0.519846154 69.3883333,0.519846154 C74.8297576,0.519846154 76.7676515,3.39217582 76.7676515,6.08004396 C76.7676515,8.80624176 73.786,11.0533187 69.5176061,11.5444176 C69.4733182,11.5468132 69.4290303,11.5492088 69.3859394,11.5492088 Z" id="Shape" fill="#FFD41D" fill-rule="nonzero"></path>
                            <path d="M8.19086364,11.5492088 C8.14657576,11.5492088 8.10348485,11.5468132 8.05919697,11.542022 C3.79080303,11.0509231 0.809151515,8.80384615 0.809151515,6.07764835 C0.809151515,3.38978022 2.74824242,0.517450549 8.1884697,0.517450549 C8.81927273,0.517450549 9.33037879,1.02891209 9.33037879,1.66015385 C9.33037879,2.2913956 8.81927273,2.80285714 8.1884697,2.80285714 C4.95066667,2.80285714 3.09416667,3.99586813 3.09416667,6.07645055 C3.09416667,7.53058242 5.38995455,8.93201099 8.32013636,9.26859341 C8.94615152,9.34046154 9.39621212,9.90821978 9.32439394,10.5346703 C9.25736364,11.1191978 8.76301515,11.5492088 8.19086364,11.5492088 Z" id="Shape" fill="#FFD41D" fill-rule="nonzero"></path>
                        </g>
                        <g id="Group" stroke-width="1" fill="none" fill-rule="evenodd" transform="translate(15.363636, 66.879121)">
                            <path d="M45.5884545,40.8991209 C44.9516667,40.8991209 44.4345758,40.3828681 44.4345758,39.7444396 L44.4345758,17.5563516 C44.4345758,13.4047692 39.6802121,10.7169011 29.4724545,9.09747253 C28.9122727,9.01841758 28.4777727,8.5369011 28.4765758,7.95476923 L28.4729848,1.40997802 C28.4729848,0.772747253 28.9888788,0.255296703 29.6256667,0.255296703 L29.6256667,0.255296703 C30.2624545,0.255296703 30.7783485,0.771549451 30.7795455,1.40878022 L30.7819394,6.97376923 C37.908697,8.18235165 46.7399394,10.6486264 46.7399394,17.5563516 L46.7399394,39.7444396 C46.7423333,40.3816703 46.2264394,40.8991209 45.5884545,40.8991209 Z" id="Shape" fill="#FFD41D" fill-rule="nonzero"></path>
                            <path d="M1.25987879,40.9230769 C0.623090909,40.9230769 0.106,40.4068242 0.106,39.7683956 L0.106,17.5803077 C0.106,11.0918132 7.532,8.6447033 15.0812879,7.18697802 L15.0765,1.2901978 C15.0765,0.652967033 15.5923939,0.135516484 16.2291818,0.134318681 L16.2303788,0.134318681 C16.8671667,0.134318681 17.3830606,0.650571429 17.3842576,1.2878022 L17.3890455,8.12246154 C17.3890455,8.55606593 17.1472576,8.95253846 16.7630303,9.15017582 C16.6624848,9.20168132 16.4937121,9.26995604 16.3835909,9.29031868 C6.72284848,11.0618681 2.41495455,13.617978 2.41495455,17.5791099 L2.41495455,39.7671978 C2.41375758,40.4068242 1.89786364,40.9230769 1.25987879,40.9230769 Z" id="Shape" fill="#FFD41D" fill-rule="nonzero"></path>
                        </g>
                        <path d="M42.105803,69.1694835 L35.471,69.1694835 C20.1988636,69.1694835 7.77431818,56.7075495 7.77431818,41.3888571 L7.77431818,34.7338681 C7.77431818,31.3237253 8.38357576,27.9926374 9.58533333,24.8328352 C9.81275758,24.2351319 10.4842576,23.9344835 11.0803485,24.1620659 C11.6776364,24.3896484 11.9780758,25.0592198 11.7506515,25.6581209 C10.6494394,28.552011 10.0904545,31.6064066 10.0904545,34.7338681 L10.0904545,41.3888571 C10.0904545,55.4294945 21.4760303,66.8517363 35.471,66.8517363 L42.105803,66.8517363 C56.1007727,66.8517363 67.4863485,55.4294945 67.4863485,41.3888571 L67.4863485,34.7338681 C67.4863485,31.1464505 66.7238788,28.6166923 65.492197,25.6964505 C65.2432273,25.1071319 65.5197273,24.4267802 66.1086364,24.1788352 C66.6975455,23.9296923 67.3774242,24.2063846 67.625197,24.7957033 C68.968197,27.9818571 69.8012879,30.755967 69.8012879,34.7338681 L69.8012879,41.3888571 C69.8024848,56.7075495 57.3779394,69.1694835 42.105803,69.1694835 Z" id="Shape" fill="#FFD41D" fill-rule="nonzero"></path>
                        <path d="M4.95784848,34.9446813 C4.6729697,34.9446813 4.39527273,34.8320879 4.18221212,34.6260659 C3.93922727,34.3912967 3.80037879,34.0571099 3.80037879,33.7073516 L3.80037879,17.7813736 C3.80037879,14.0957363 7.76833333,11.754033 11.6285606,11.5587912 C14.7179394,7.5221978 29.4083485,0.78456044 42.9365,0.78456044 C51.8000606,0.78456044 59.3242121,3.4329011 65.3054697,8.65891209 C69.9269697,8.65052747 73.6842576,5.32423077 73.6842576,1.23732967 C73.6842576,0.554582418 74.2025455,0 74.8417273,0 L74.9841667,0 C75.3528333,0 75.6975606,0.186857143 75.9166061,0.503076923 C78.6157727,4.4139011 78.9509242,11.4713516 76.7149848,17.2854835 C74.8333485,22.1761099 71.4842273,25.2580549 67.2864545,25.9611648 C67.2266061,25.9719451 67.1667576,25.9767363 67.1069091,25.9767363 L11.3592424,25.9767363 L10.3023182,33.4294615 C10.2233182,33.9864396 9.80078788,34.4164505 9.27651515,34.4739451 L5.07874242,34.9374945 C5.03684848,34.9422857 4.99734848,34.9446813 4.95784848,34.9446813 Z M11.6812273,14.0310549 C8.66725758,14.1915604 6.11651515,15.8756703 6.11651515,17.7813736 L6.11651515,32.3358681 L8.14537879,32.1118791 L9.21786364,24.5537473 C9.30404545,23.9488571 9.79001515,23.5020769 10.3633636,23.5020769 L67.0147424,23.5020769 C71.4997879,22.7043407 73.6734848,18.6821209 74.5736061,16.3452088 C76.0003939,12.6344176 76.2182424,8.11630769 75.2953788,4.77084615 C73.7512879,8.48762637 69.8479697,11.1323736 65.2887121,11.1323736 L64.8877273,11.1323736 C64.6148182,11.1323736 64.3514848,11.0293626 64.1420152,10.8425055 C58.537803,5.81053846 51.4026667,3.25802198 42.9365,3.25802198 C28.1766667,3.25802198 14.5024848,11.1132088 13.3390303,13.1267143 C13.2600303,13.636978 12.8877727,14.0502198 12.3970152,14.1424505 C12.1444545,14.1903626 11.8966818,14.146044 11.6812273,14.0310549 Z" id="Shape" fill="#FFD41D" fill-rule="nonzero"></path>
                    </g>
                </g>
            </g>
        </g>
    </g>
</svg>