<?xml version="1.0" encoding="UTF-8"?>
<svg width="90px" height="154px" viewBox="0 0 90 154" version="1.1" xmlns="http://www.w3.org/2000/svg" xmlns:xlink="http://www.w3.org/1999/xlink">
    <!-- Generator: Sketch 46.2 (44496) - http://www.bohemiancoding.com/sketch -->
    <title>Graphics/figureB</title>
    <desc>Created with Sketch.</desc>
    <defs></defs>
    <g id="UI" stroke="none" stroke-width="1" fill="none" fill-rule="evenodd">
        <g id="Graphics" transform="translate(-180.000000, -299.000000)" fill="#5CC4FF">
            <g id="Graphics/figureB" transform="translate(180.000000, 299.000000)">
                <path d="M69,133 L69,128 C71.9816673,126.413026 74.089603,123.267592 74,120 C73.8409933,116.348978 71.5127957,113.364693 68,112 L68,109 L69,109 C69.9676832,108.670286 70.7378011,108.130064 71,107 C71.1270163,107.076504 71.5198289,106.023958 72,104 C74.8168624,100.420405 98.5411474,65.345568 87,32 C74.2954386,-3.83175392 41.9601833,1.22046608 42,1 C40.6364655,1.4544451 39.9076407,2.32652418 40,3 L40,17 C36.2309761,18.2549911 32.7752427,19.9773356 30,22 C28.3353692,23.2337104 13.4613312,34.1200416 2,68 C2.35789528,67.8416053 2.18741063,68.1824296 2,69 C1.4390064,69.5091566 1.08897636,70.6171138 1,72 C1,74.5177531 2.77762649,78.1866272 5,81 C7.44400472,83.1479304 10.2712302,84.5118815 13,85 L21,85 C23.2149954,84.6262425 25.0112305,82.7529873 25,80 L25,73 C28.306579,67.6281115 33.9353482,64.3038326 40,64 C40.2144604,67.0897868 39.4238503,73.9463711 32,79 C9.78643987,94.556221 16.6476993,107.106577 17,108 C17.3140269,108.272623 17.9953919,108.670659 19,109 L19,109 L19,112 C15.1844033,112.355216 12.0874996,115.195569 12,119 C10.9890791,122.68962 13.1393872,126.307483 17,128 L17,133 C10.6274395,134.447836 6.2152659,139.740357 6,146 L6,152 C6.2234852,152.449668 6.43917959,152.983173 7,153 C7.21442411,153.772799 7.74219996,153.996555 8,154 L77,154 C77.6775436,153.996556 78.2052179,153.772768 79,153 C78.9801458,152.983083 79.1956176,152.449575 79,152 L79,146 C79.2088257,139.741583 74.799193,134.447566 69,133 L69,133 Z M21,128 L25,128 L25,133 L21,133 L21,128 Z M26,128 L64,128 L64,133 L26,133 L26,128 L26,128 Z M70,120 C70.007751,122.200809 68.3395722,123.988262 66,124 L23,124 C21.6154655,122.984222 21,121.528571 21,120 C21,118.471429 21.6154655,117.015778 23,116 L66,116 C68.3364021,116.016999 70.0033081,117.807851 70,120 L70,120 Z M57,19 C57.1184333,18.1189784 57.3407969,17.5327179 58,17 C63.4070504,20.1781576 68.2382263,24.7884699 72,30 C77.6830933,39.8395165 83.3437084,56.9766569 78,86 C77.1194262,86.9091288 76.6129571,87.9795748 76,89 C78.9840172,74.6040017 80.6510753,54.1054606 73,37 C69.5004418,29.7353064 63.339011,21.4118383 57,19 L57,19 Z M83,33 C88.6488244,49.0784793 85.4043531,65.9583164 81,79 C84.1728388,53.7907671 78.8224287,38.2472505 73,29 C69.6967714,23.5829893 64.8194708,18.8390739 59,16 C59.5878082,14.9090833 59.7229205,13.9921005 59,13 C59.0012015,12.4482898 58.2162007,11.9751128 57,12 C54.3045474,12.1870909 51.3668866,13.3534644 49,15 L49,5 C58.1181514,5.46218601 74.9528031,9.63190767 83,33 L83,33 Z M44,5 C44.7870763,5.03914591 45.8114407,5 47,5 L47,16 C45.9971574,15.8290777 44.9950519,15.8846512 44,16 L44,5 L44,5 Z M5,72 C5.15596839,71.8223655 5.35507212,71.3573878 6,71 C5.81617674,70.4746976 6.04132821,70.0223207 6,70 C6.25039744,69.499574 6.26547455,69.4493099 6,69 C17.113956,36.5263248 32.0101382,26.2121315 32,26 C32.20212,26.0814449 32.2553924,26.0412336 32,26 C34.6452637,24.283464 37.2420135,22.9303052 40,22 C39.1389053,22.4762372 38.3352413,23.0496409 38,24 L38,24 C36.9282906,24.0809337 21.7466485,34.445391 11,68 C10.3945917,68.8159823 10.1995945,69.2080423 10,70 C9.5165987,70.4083391 9.20987121,71.3245333 9,72 C9.11002216,74.7270404 10.7564423,78.0444709 13,81 C13.379859,80.6984154 13.5507329,80.8492077 14,81 L13,81 C11.3000286,80.8296296 9.51676986,79.9133443 8,78 C6.13681656,76.3053331 4.99799238,73.6714943 5,72 L5,72 Z M21,72 C21.2061982,71.9477588 21.1942936,71.9880259 21,72 C21.1417151,72.0886934 21.1079854,72.1591608 21,72 C21.0464784,72.3000954 21.0375499,72.3604959 21,72 C21.0018362,72.481297 20.9839793,72.5517643 21,73 C20.9628565,72.6989769 20.9555717,72.7762585 21,73 C20.9522337,72.8940341 20.9413212,72.9343012 21,73 L21,81 L17,81 C15.8505562,80.7228555 15.1774255,80.1657415 15,80 C12.4989858,77.4039419 11,74.4342482 11,72 C11.1193984,71.7779297 11.3615108,71.1227771 12,71 C11.9226054,70.105542 12.1319277,69.6726714 12,69 C23.1833515,35.7376285 38.1970183,25.2782664 38,25 C38.3676507,25.1675321 38.3894758,25.1473985 38,25 C40.2340648,23.7421556 42.2245309,22.5854637 44,22 C44.0820924,22.2971841 43.8803376,22.9201276 44,24 C43.5587771,24.2853581 43.7846741,25.0514771 44,26 C44.8605837,26.077449 45.6281389,26.2586718 46,26 C47.0398707,25.8200416 47.5758527,25.2338051 48,25 C48.5002496,21.7148099 50.3540878,19.3647095 53,18 C52.6323742,18.981112 52.5738863,19.9975717 53,21 C52.6958118,21.0502278 52.7106925,21.0804281 53,21 C52.7537465,21.4187633 52.8064088,21.7145254 53,22 C53.5608783,24.8151955 52.862476,25.4494013 51,26 C50.4040499,27.1606531 50.1593045,28.4673086 51,29 C51.1782027,30.0092132 51.8166828,30.3523934 52,30 C52.9103874,30.354874 53.3121514,30.2282411 54,30 C55.463628,28.7412313 57.0747152,27.1506835 57,24 C61.2730658,26.9996821 65.8176415,32.798135 69,39 C80.0932239,64.3876232 69.8870257,98.1716647 67,105 L61,105 C59.451701,105.385614 58.6042834,106.307024 59,107 C58.6042834,108.52894 59.451701,109.450351 61,110 L64,110 L64,113 L29,113 L29,110 L36,110 C36.9598967,109.450351 37.8073143,108.52894 38,107 C37.8073143,106.307024 36.9598967,105.385614 36,105 L25,105 C24.9978088,102.34937 26.2894564,95.7757762 38,87 C45.2840789,81.4089575 49.5436244,72.5088952 49,63 C57.6626838,59.6155399 63.107613,51.221048 63,42 C63.0007265,41.2122888 62.6122831,40.5058817 62,40 C61.3259291,39.7394613 60.5287445,39.7394613 60,40 C59.2423905,40.5058817 58.8539471,41.2122888 59,42 C58.8703236,52.0759775 51.3109116,60.310586 42,60 C40.8497568,60.2803857 28.0463748,60.0085832 21,72 L21,72 Z M34,83 C43.6811922,76.110869 44.6968702,67.7441298 45,64 C45.726797,63.5605254 46.8753377,63.3280951 48,63 C48.1135337,71.5040108 44.0682114,79.5386514 37,85 C25.0209917,93.5887194 23.4207725,100.526265 24,104 L20,104 C19.5265046,101.201162 19.0101432,92.993222 34,83 L34,83 Z M27,109 L27,112 L23,112 L23,109 L27,109 Z M16,120 C15.9981764,117.808024 17.6386982,116.017 20,116 L21,116 C19.4956378,118.418744 19.4921285,121.577374 21,124 L20,124 C18.6970972,123.996334 17.759961,123.573339 17,123 C16.3812033,122.074919 15.9960938,121.060912 16,120 L16,120 Z M10,145 C9.98416089,140.984016 13.4490581,137.414592 18,137 C15.5117696,139.113635 14.0945838,142.104728 14,145 L14,149 L10,149 L10,145 L10,145 L10,145 Z M75,149 L16,149 L16,145 C15.9942796,141.840526 17.867012,138.688826 21,137 L67,137 C71.269323,137.027804 75.0123218,140.7199 75,145 L75,149 L75,149 Z" id="figureB"></path>
            </g>
        </g>
    </g>
</svg>