<?xml version="1.0" encoding="UTF-8"?>
<svg width="90px" height="154px" viewBox="0 0 90 154" version="1.1" xmlns="http://www.w3.org/2000/svg" xmlns:xlink="http://www.w3.org/1999/xlink">
    <!-- Generator: Sketch 46.2 (44496) - http://www.bohemiancoding.com/sketch -->
    <title>Graphics/figureA</title>
    <desc>Created with Sketch.</desc>
    <defs></defs>
    <g id="UI" stroke="none" stroke-width="1" fill="none" fill-rule="evenodd">
        <g id="Graphics" transform="translate(-50.000000, -299.000000)" fill="#5CC4FF">
            <g id="Graphics/figureA" transform="translate(50.000000, 299.000000)">
                <path d="M79,132 L79,126 C82.4288627,125.130427 84.6970138,121.618295 84,118 C84.106533,114.054633 81.3208919,110.938067 78,110 C75.4243727,107.523653 67.4347696,97.4035653 66,92 C63.7088873,86.5427389 61.1496551,68.6448978 60,62 C63.8676462,60.8732769 66.1078139,57.4181237 66,54 C65.5939388,49.9482153 62.9017951,46.8332505 59,46 C68.3556636,39.7889719 72.3362398,28.3256704 69,18 C65.7979257,7.2004279 56.0408796,0 45,0 C33.9531222,0 24.1960761,7.2004279 21,18 C17.657762,28.3256704 21.6383382,39.7889719 31,46 C27.0898663,46.8339094 24.3961758,49.9511176 24,54 C23.8827461,57.4259277 26.1248592,60.8830472 30,62 C28.8393482,68.6448978 26.2851145,86.5427389 24,92 C22.5612316,97.4135753 14.5716285,107.523653 12,110 C8.67510926,110.938067 5.88946818,114.054633 6,118 C5.29898743,121.618295 7.56713854,125.130427 11,126 L11,132 C4.71914525,133.376577 0.0254861438,138.934743 0,145 L0,152 C0.000526670985,152.302687 0.245507701,152.892194 1,153 C1.11619595,153.759881 1.7060962,154.002377 2,154 L88,154 C88.2956383,154.002111 88.8851787,153.759465 89,153 C89.7551166,152.891779 89.999738,152.302421 90,152 L90,145 C89.9733613,138.93377 85.2780144,133.375602 79,132 L79,132 Z M16,127 L21,127 L21,132 L16,132 L16,127 Z M22,127 L74,127 L74,132 L22,132 L22,127 Z M58,50 C59.7556226,50 61.4573988,51.7090159 61,54 C61.4573988,55.9253717 59.7556226,57.6343876 58,58 L53,58 C52.4365524,57.6343873 51.6747557,58.0760818 51,59 C50.8503343,59.5100958 50.8503343,60.393485 51,61 C51.6747557,61.8274991 52.4365524,62.2691935 53,62 L56,62 C56.8012699,68.8702801 59.3975537,87.1787655 61,93 C63.0597225,97.8829595 68.3831532,105.276578 72,110 L67,110 C65.663221,109.730807 64.6300796,110.768343 65,112 C64.6300796,113.328076 65.663221,114.365612 67,114 L76,114 C78.2982238,114.365612 80,116.074628 80,118 C80,120.290984 78.2982238,122 76,122 L19,122 C17.6099933,121.021861 17,119.635996 17,118 C17,116.729617 17.6099933,115.343752 19,114 L26,114 C27.3019091,114.365612 28.3350505,113.328076 28,112 C28.3350505,110.768343 27.3019091,109.730807 26,110 L25,110 C28.1502438,105.487251 33.9861385,97.581998 36,93 C37.6363197,86.8978682 40.1916464,69.0107287 41,62 L42,62 C43.3096681,62.2691935 44.0714649,61.8274991 44,61 C44.8958862,60.393485 44.8958862,59.5100958 44,59 C44.0714649,58.0760818 43.3096681,57.6343873 42,58 L37,58 C36.1525946,56.6562482 35.5426012,55.2703832 36,54 C35.5426012,52.3640044 36.1525946,50.9781394 37,50 L58,50 L58,50 Z M65,26 C64.9561397,36.8461278 55.8040932,46.0160843 45,46 C44.0526595,45.9999788 43.5742099,45.9799397 43,46 C34.6194171,42.7650245 29,34.6118983 29,26 C29,16.3881047 34.6194171,8.23497847 43,5 C43.5732152,5.02006327 44.0506701,5.00002419 45,5 C55.8028798,4.98281272 64.9561383,14.1530919 65,26 Z M24,26 C24.0198642,17.7126806 28.7414164,10.2368897 36,7 C30.3150724,11.4887212 26.9702915,18.5266933 27,26 C26.9702915,33.4733067 30.3150724,40.5112788 36,45 C28.7414164,41.7631103 24.0198642,34.2873194 24,26 Z M33,50 L35,50 C33.4283909,52.4293525 33.4283909,55.5706475 35,58 L33,58 C30.7690099,58 29,56.209139 29,54 C29,51.790861 30.7690099,50 33,50 Z M28,94 C30.1360172,87.6673008 32.6794997,69.5468189 33,63 L38,63 C37.1713895,69.8249841 34.7099863,87.0911012 33,92 C31.1854602,97.5322342 24.5829588,106.31431 22,110 L18,110 C21.3466875,105.589093 26.5557944,98.2673853 28,94 Z M14,115 L16,115 C14.430886,117.430399 14.430886,120.569601 16,123 L14,123 C11.7711469,123.00058 10.0005732,121.210189 10,119 C9.99942703,116.791911 11.7690715,115.00058 14,115 Z M5,146 C5.01764823,141.131908 8.55097424,137.165276 13,137 C10.7030723,139.316879 9.39559369,142.571045 9,146 L9,150 L5,150 L5,146 L5,146 L5,146 Z M85,150 L11,150 L11,146 C11.0082029,142.273591 12.941696,138.849108 16,137 L76,137 C81.0487009,136.993755 84.9802215,141.012026 85,146 L85,150 L85,150 Z M41,112 C41.0010324,113.164932 41.2403609,113.802119 42,114 C42.0900896,114.740047 42.6656058,115.002285 43,115 L58,115 C58.9912099,114.999985 60,113.8807 60,112 C60,111.119285 58.9912099,110 58,110 L43,110 C42.0203177,109.999389 41.0078584,111.116939 41,112 L41,112 Z" id="figureA"></path>
            </g>
        </g>
    </g>
</svg>