<?xml version="1.0" encoding="UTF-8"?>
<svg width="110px" height="89px" viewBox="0 0 110 89" version="1.1" xmlns="http://www.w3.org/2000/svg" xmlns:xlink="http://www.w3.org/1999/xlink">
    <!-- Generator: Sketch 46.2 (44496) - http://www.bohemiancoding.com/sketch -->
    <title>Graphics/personal</title>
    <desc>Created with Sketch.</desc>
    <defs></defs>
    <g id="UI" stroke="none" stroke-width="1" fill="none" fill-rule="evenodd">
        <g id="Graphics" transform="translate(-50.000000, -493.000000)" fill="#01A3FF">
            <g id="Graphics/personal" transform="translate(50.000000, 493.000000)">
                <path d="M50.7854569,7.99256987 C50.7414657,6.22400975 51.6489733,4.57041 53.1560501,3.67303286 C54.6631269,2.77565571 56.5327147,2.77565571 58.0397915,3.67303286 C59.5468684,4.57041 60.4543759,6.22400975 60.4103848,7.99256987 C60.334102,9.31367911 59.9798839,10.6030869 59.3714166,11.7745721 C59.0980528,12.3155701 58.9560095,12.914663 58.9570481,13.5222455 C58.9185847,15.6345543 60.2340606,17.5298204 62.2110598,18.2104487 C67.8202691,19.7516069 72.3234801,26.6066786 74.9498454,31.3688574 C75.9163581,33.1474421 76.4176713,35.1463444 76.4062289,37.1759415 L76.4062289,46.4814547 C76.4062289,47.4296449 75.646419,48.1983049 74.709146,48.1983049 C73.771873,48.1983049 73.0120631,47.4296449 73.0120631,46.4814547 L73.0120631,40.3168219 C73.0069186,37.5946682 71.9069401,34.9918503 69.9652357,33.1072839 L65.6753026,28.9122513 C65.4771006,28.749854 65.2348908,28.6520565 64.9806259,28.6317605 C64.495796,28.6266054 64.0818445,28.9848013 64.0117348,29.4701505 C62.4234508,37.4320794 63.1190718,45.6874609 66.0165473,53.2625508 L77.7925354,78.1707496 C77.9347561,78.5517541 78.0050339,78.9563761 77.9997196,79.363606 C78.0107819,80.5512048 77.2483537,81.6046998 76.1259208,81.9527518 L69.9682825,83.913105 C69.726843,83.9694445 69.4731194,83.9168076 69.2730862,83.7688814 C69.073053,83.6209551 68.9464756,83.3923561 68.9262675,83.1425259 C68.9229568,82.8653704 69.0538016,82.6040858 69.2766526,82.4428401 L71.7659107,80.6242734 C72.1878748,80.3144943 72.4425799,79.8230935 72.4544937,79.2957951 C72.4693124,78.9906204 72.3715923,78.6907502 72.1802792,78.4543227 L61.589507,61.3813722 C60.2195021,59.256902 59.2122051,56.914592 58.6097097,54.4523249 L41.1605289,83.074715 C40.8448677,83.628629 40.268782,83.9783065 39.6371152,83.9994099 C39.1033469,84.0133574 38.5926173,83.7794326 38.2508087,83.3644527 L33.126045,77.4895577 C32.9889294,77.3372821 32.9147744,77.1376001 32.9188607,76.9316584 C32.9250844,76.7167995 33.0170196,76.5136405 33.1737188,76.3684717 C33.330418,76.2233028 33.5385331,76.1484899 33.7506446,76.1610793 C33.8484527,76.1506754 33.9467301,76.1758041 34.0279059,76.2319726 L36.6603648,77.2059846 C36.8428272,77.3192487 37.0564989,77.3700464 37.2697303,77.3508534 C37.886202,77.3538782 38.4503785,77.0008999 38.723067,76.4415701 L40.3866348,73.430147 L48.0037034,55.6605929 C51.0228473,48.3681614 51.5587785,40.2670033 49.5271171,32.6326071 C49.4764598,32.3597173 49.2467837,32.1580057 48.9725945,32.1456012 C48.7795685,32.166834 48.6040182,32.2684765 48.488149,32.4260919 C44.3616482,37.8111459 38.1702982,41.1719754 31.4533367,41.6730411 C30.7001548,41.68249 30.066826,41.1035714 30,40.3445628 C30.0134177,39.7543838 30.4068135,39.2425191 30.9688911,39.0838954 C38.3625578,36.9328455 44.0626017,30.9584925 45.9257671,23.4072342 L46.4802897,21.6595608 C46.7066409,20.8103855 47.4822276,20.2315041 48.3510417,20.2632714 C50.6604848,20.2661635 52.6550327,18.6292909 53.1284672,16.342565 C53.4057285,14.5239983 53.4057285,14.3822118 53.4057285,14.3822118 C53.3986997,14.1678959 53.3064146,13.9655344 53.1498072,13.8210309 C52.9931998,13.6765274 52.785544,13.60213 52.5739446,13.614715 C52.4328565,13.6225987 52.2929636,13.6453249 52.1565292,13.6825259 L51.9645791,13.6825259 C51.3232128,13.6618142 50.8075894,13.1415329 50.7854569,12.4927518 L50.7854569,8.01106377 L50.7854569,8.01106377 L50.7854569,7.99256987 Z" id="home"></path>
            </g>
        </g>
    </g>
</svg>